{"glyphs":{"0":{"ha":1001,"x_min":0,"x_max":0,"o":"m 501 -21 b 943 486 797 -21 943 201 b 501 993 943 771 797 993 b 58 486 204 993 58 771 b 501 -21 58 201 204 -21 z m 501 142 b 236 486 319 142 236 288 b 501 831 236 685 319 831 b 765 486 682 831 765 685 b 501 142 765 288 682 142 z "},"1":{"ha":454,"x_min":0,"x_max":0,"o":"m 361 972 l 53 972 l 42 813 l 186 813 l 186 0 l 361 0 z "},"2":{"ha":896,"x_min":0,"x_max":0,"o":"m 81 0 l 817 0 l 817 156 l 340 156 l 426 219 l 625 371 b 824 681 779 488 824 564 b 451 993 824 865 708 993 b 74 618 197 993 60 872 l 247 618 b 451 835 238 775 324 835 b 647 669 581 835 647 775 b 492 460 647 583 600 539 l 81 156 z "},"3":{"ha":883,"x_min":0,"x_max":0,"o":"m 439 -21 b 825 299 714 -21 825 132 b 535 593 825 471 704 575 l 768 818 l 768 972 l 108 972 l 108 813 l 574 813 l 333 589 l 333 463 b 444 476 369 472 408 476 b 649 310 556 476 649 429 b 444 140 649 207 578 140 b 233 326 314 140 224 201 l 58 326 b 439 -21 47 101 189 -21 z "},"4":{"ha":904,"x_min":0,"x_max":0,"o":"m 811 972 l 574 972 l 42 307 l 42 150 l 636 150 l 636 0 l 811 0 z m 231 307 l 636 815 l 636 307 z "},"5":{"ha":882,"x_min":0,"x_max":0,"o":"m 436 -21 b 824 321 699 -21 824 119 b 469 658 824 483 743 658 b 258 604 378 658 299 639 l 258 818 l 764 818 l 764 972 l 83 972 l 83 439 l 249 439 b 438 519 267 472 322 519 b 647 329 583 519 647 444 b 438 139 647 203 574 139 b 233 326 300 139 225 204 l 58 326 b 436 -21 49 100 183 -21 z "},"6":{"ha":882,"x_min":0,"x_max":0,"o":"m 468 674 b 419 671 451 674 436 672 l 688 972 l 481 972 l 181 628 b 58 335 88 521 58 429 b 442 -21 58 131 194 -21 b 824 333 688 -21 824 132 b 468 674 824 521 704 674 z m 442 140 b 235 333 307 140 235 221 b 442 526 235 447 307 526 b 649 333 575 526 649 447 b 442 140 649 221 575 140 z "},"7":{"ha":903,"x_min":0,"x_max":0,"o":"m 872 972 l 47 972 l 47 815 l 599 815 l 111 0 l 299 0 z "},"8":{"ha":932,"x_min":0,"x_max":0,"o":"m 467 -21 b 853 271 738 -21 853 107 b 682 519 853 394 789 479 b 808 732 761 564 808 635 b 467 993 808 875 704 993 b 124 732 228 993 124 875 b 250 519 124 635 171 564 b 79 271 144 479 79 393 b 467 -21 79 107 196 -21 z m 467 575 b 290 714 357 575 290 622 b 467 851 290 804 357 851 b 643 714 575 851 643 804 b 467 575 643 622 575 575 z m 467 132 b 260 296 343 132 260 185 b 467 456 260 406 343 456 b 672 296 589 456 672 406 b 467 132 672 185 589 132 z "},"9":{"ha":882,"x_min":0,"x_max":0,"o":"m 442 993 b 58 640 194 993 58 840 b 414 300 58 451 178 300 b 465 303 431 300 447 301 l 194 0 l 401 0 l 701 344 b 824 638 794 451 824 543 b 442 993 824 842 688 993 z m 442 446 b 235 639 307 446 235 525 b 442 832 235 751 307 832 b 647 639 575 832 647 751 b 442 446 647 525 575 446 z "}," ":{"ha":264,"x_min":0,"x_max":0,"o":""},"A":{"ha":1108,"x_min":0,"x_max":0,"o":"m 890 0 l 1078 0 l 650 972 l 457 972 l 31 0 l 217 0 l 276 138 l 831 138 z m 339 281 l 554 775 l 768 281 z "},"Á":{"ha":1108,"x_min":0,"x_max":0,"o":"m 768 1294 l 603 1294 l 488 1065 l 653 1065 z m 890 0 l 1078 0 l 650 972 l 457 972 l 31 0 l 217 0 l 276 138 l 831 138 z m 339 281 l 554 775 l 768 281 z "},"Ă":{"ha":1108,"x_min":0,"x_max":0,"o":"m 554 1033 b 818 1294 746 1033 829 1135 l 667 1294 b 554 1160 676 1206 635 1160 b 442 1294 474 1160 432 1206 l 290 1294 b 554 1033 279 1135 363 1033 z m 890 0 l 1078 0 l 650 972 l 457 972 l 31 0 l 217 0 l 276 138 l 831 138 z m 339 281 l 554 775 l 768 281 z "},"Ǎ":{"ha":1108,"x_min":0,"x_max":0,"o":"m 431 1065 l 679 1065 l 794 1294 l 632 1294 l 554 1140 l 476 1294 l 315 1294 z m 890 0 l 1078 0 l 650 972 l 457 972 l 31 0 l 217 0 l 276 138 l 831 138 z m 339 281 l 554 775 l 768 281 z "},"Â":{"ha":1108,"x_min":0,"x_max":0,"o":"m 554 1219 l 632 1065 l 794 1065 l 679 1294 l 431 1294 l 315 1065 l 476 1065 z m 890 0 l 1078 0 l 650 972 l 457 972 l 31 0 l 217 0 l 276 138 l 831 138 z m 339 281 l 554 775 l 768 281 z "},"Ä":{"ha":1108,"x_min":0,"x_max":0,"o":"m 360 1110 b 456 1199 421 1110 456 1151 b 360 1288 456 1246 421 1288 b 264 1199 299 1288 264 1246 b 360 1110 264 1151 299 1110 z m 747 1110 b 843 1199 808 1110 843 1151 b 747 1288 843 1246 808 1288 b 651 1199 686 1288 651 1246 b 747 1110 651 1151 686 1110 z m 890 0 l 1078 0 l 650 972 l 457 972 l 31 0 l 217 0 l 276 138 l 831 138 z m 339 281 l 554 775 l 768 281 z "},"À":{"ha":1108,"x_min":0,"x_max":0,"o":"m 638 1065 l 522 1294 l 357 1294 l 472 1065 z m 890 0 l 1078 0 l 650 972 l 457 972 l 31 0 l 217 0 l 276 138 l 831 138 z m 339 281 l 554 775 l 768 281 z "},"Ā":{"ha":1108,"x_min":0,"x_max":0,"o":"m 808 1294 l 299 1294 l 299 1142 l 808 1142 z m 890 0 l 1078 0 l 650 972 l 457 972 l 31 0 l 217 0 l 276 138 l 831 138 z m 339 281 l 554 775 l 768 281 z "},"Ą":{"ha":1108,"x_min":0,"x_max":0,"o":"m 1043 0 l 1078 0 l 650 972 l 457 972 l 31 0 l 217 0 l 276 138 l 831 138 l 890 1 b 733 -194 811 -33 733 -92 b 917 -347 733 -282 790 -347 b 1003 -333 947 -347 978 -343 l 1003 -217 l 985 -218 b 876 -140 924 -222 876 -197 b 1043 0 876 -86 917 -29 z m 339 281 l 554 775 l 768 281 z "},"Å":{"ha":1108,"x_min":0,"x_max":0,"o":"m 554 1051 b 690 1183 640 1051 690 1113 b 554 1317 690 1256 640 1317 b 418 1183 468 1317 418 1256 b 554 1051 418 1113 468 1051 z m 554 1235 b 606 1183 588 1235 606 1213 b 554 1133 606 1156 588 1133 b 503 1183 521 1133 503 1156 b 554 1235 503 1213 521 1235 z m 890 0 l 1078 0 l 650 972 l 457 972 l 31 0 l 217 0 l 276 138 l 831 138 z m 339 281 l 554 775 l 768 281 z "},"Ã":{"ha":1108,"x_min":0,"x_max":0,"o":"m 686 1165 b 835 1121 726 1165 785 1156 l 835 1256 b 690 1299 792 1286 740 1299 b 422 1236 576 1299 529 1236 b 274 1281 381 1236 324 1246 l 274 1146 b 418 1103 317 1115 368 1103 b 686 1165 532 1103 579 1165 z m 890 0 l 1078 0 l 650 972 l 457 972 l 31 0 l 217 0 l 276 138 l 831 138 z m 339 281 l 554 775 l 768 281 z "},"Æ":{"ha":1649,"x_min":0,"x_max":0,"o":"m 1589 815 l 1589 972 l 663 972 l 17 0 l 208 0 l 324 174 l 769 174 l 769 0 l 1589 0 l 1589 157 l 949 157 l 949 408 l 1561 408 l 1561 550 l 949 550 l 949 815 z m 422 322 l 769 846 l 769 322 z "},"B":{"ha":1039,"x_min":0,"x_max":0,"o":"m 803 494 b 944 711 911 539 944 619 b 617 972 944 850 869 972 l 93 972 l 93 0 l 647 0 b 979 260 904 0 979 126 b 803 494 979 361 935 453 z m 600 818 b 765 688 715 818 765 778 b 600 563 765 601 715 563 l 272 563 l 272 818 z m 624 154 l 272 154 l 272 422 l 624 422 b 800 289 747 422 800 379 b 624 154 800 196 747 154 z "},"C":{"ha":1124,"x_min":0,"x_max":0,"o":"m 579 143 b 239 486 357 143 239 293 b 579 829 239 681 357 829 b 885 621 728 829 836 772 l 1058 621 b 579 993 1014 861 838 993 b 58 486 249 993 58 768 b 579 -21 58 204 249 -21 b 1058 351 838 -21 1014 111 l 885 351 b 579 143 836 200 728 143 z "},"Ć":{"ha":1124,"x_min":0,"x_max":0,"o":"m 503 1065 l 668 1065 l 783 1294 l 618 1294 z m 579 143 b 239 486 357 143 239 293 b 579 829 239 681 357 829 b 885 621 728 829 836 772 l 1058 621 b 579 993 1014 861 838 993 b 58 486 249 993 58 768 b 579 -21 58 204 249 -21 b 1058 351 838 -21 1014 111 l 885 351 b 579 143 836 200 728 143 z "},"Č":{"ha":1124,"x_min":0,"x_max":0,"o":"m 446 1065 l 694 1065 l 810 1294 l 647 1294 l 569 1140 l 492 1294 l 331 1294 z m 579 143 b 239 486 357 143 239 293 b 579 829 239 681 357 829 b 885 621 728 829 836 772 l 1058 621 b 579 993 1014 861 838 993 b 58 486 249 993 58 768 b 579 -21 58 204 249 -21 b 1058 351 838 -21 1014 111 l 885 351 b 579 143 836 200 728 143 z "},"Ç":{"ha":1124,"x_min":0,"x_max":0,"o":"m 579 143 b 239 486 357 143 239 293 b 579 829 239 681 357 829 b 885 621 728 829 836 772 l 1058 621 b 579 993 1014 861 838 993 b 58 486 249 993 58 768 b 517 -18 58 222 225 8 l 449 -143 l 575 -143 b 631 -196 611 -143 631 -167 b 574 -249 631 -225 611 -249 b 526 -231 551 -249 538 -240 l 478 -297 b 585 -337 499 -321 538 -337 b 731 -196 672 -337 731 -282 b 597 -61 731 -115 675 -61 l 582 -61 l 606 -21 b 1058 351 850 -11 1015 119 l 885 351 b 579 143 836 200 728 143 z "},"Ċ":{"ha":1124,"x_min":0,"x_max":0,"o":"m 569 1110 b 665 1199 631 1110 665 1151 b 569 1288 665 1246 631 1288 b 474 1199 508 1288 474 1246 b 569 1110 474 1151 508 1110 z m 579 143 b 239 486 357 143 239 293 b 579 829 239 681 357 829 b 885 621 728 829 836 772 l 1058 621 b 579 993 1014 861 838 993 b 58 486 249 993 58 768 b 579 -21 58 204 249 -21 b 1058 351 838 -21 1014 111 l 885 351 b 579 143 836 200 728 143 z "},"D":{"ha":1107,"x_min":0,"x_max":0,"o":"m 93 0 l 546 0 b 1042 486 861 0 1042 189 b 546 972 1042 785 861 972 l 93 972 z m 272 158 l 272 814 l 540 814 b 861 486 757 814 861 694 b 540 158 861 278 757 158 z "},"Ð":{"ha":1093,"x_min":0,"x_max":0,"o":"m 546 972 l 93 972 l 93 563 l 0 563 l 0 411 l 93 411 l 93 0 l 546 0 b 1042 486 861 0 1042 189 b 546 972 1042 785 861 972 z m 540 158 l 272 158 l 272 411 l 454 411 l 454 563 l 272 563 l 272 814 l 540 814 b 861 486 757 814 861 694 b 540 158 861 278 757 158 z "},"Ď":{"ha":1107,"x_min":0,"x_max":0,"o":"m 422 1065 l 671 1065 l 786 1294 l 624 1294 l 546 1140 l 468 1294 l 307 1294 z m 546 972 l 93 972 l 93 0 l 546 0 b 1042 486 861 0 1042 189 b 546 972 1042 785 861 972 z m 540 158 l 272 158 l 272 814 l 540 814 b 861 486 757 814 861 694 b 540 158 861 278 757 158 z "},"Đ":{"ha":1093,"x_min":0,"x_max":0,"o":"m 546 972 l 93 972 l 93 563 l 0 563 l 0 411 l 93 411 l 93 0 l 546 0 b 1042 486 861 0 1042 189 b 546 972 1042 785 861 972 z m 540 158 l 272 158 l 272 411 l 454 411 l 454 563 l 272 563 l 272 814 l 540 814 b 861 486 757 814 861 694 b 540 158 861 278 757 158 z "},"E":{"ha":972,"x_min":0,"x_max":0,"o":"m 913 815 l 913 972 l 93 972 l 93 0 l 913 0 l 913 157 l 272 157 l 272 408 l 885 408 l 885 550 l 272 550 l 272 815 z "},"É":{"ha":972,"x_min":0,"x_max":0,"o":"m 713 1294 l 547 1294 l 432 1065 l 597 1065 z m 913 815 l 913 972 l 93 972 l 93 0 l 913 0 l 913 157 l 272 157 l 272 408 l 885 408 l 885 550 l 272 550 l 272 815 z "},"Ě":{"ha":972,"x_min":0,"x_max":0,"o":"m 375 1065 l 624 1065 l 739 1294 l 576 1294 l 499 1140 l 421 1294 l 260 1294 z m 913 815 l 913 972 l 93 972 l 93 0 l 913 0 l 913 157 l 272 157 l 272 408 l 885 408 l 885 550 l 272 550 l 272 815 z "},"Ê":{"ha":972,"x_min":0,"x_max":0,"o":"m 499 1219 l 576 1065 l 739 1065 l 624 1294 l 375 1294 l 260 1065 l 421 1065 z m 913 815 l 913 972 l 93 972 l 93 0 l 913 0 l 913 157 l 272 157 l 272 408 l 885 408 l 885 550 l 272 550 l 272 815 z "},"Ë":{"ha":972,"x_min":0,"x_max":0,"o":"m 306 1110 b 401 1199 367 1110 401 1151 b 306 1288 401 1246 367 1288 b 210 1199 244 1288 210 1246 b 306 1110 210 1151 244 1110 z m 693 1110 b 789 1199 754 1110 789 1151 b 693 1288 789 1246 754 1288 b 597 1199 632 1288 597 1246 b 693 1110 597 1151 632 1110 z m 913 815 l 913 972 l 93 972 l 93 0 l 913 0 l 913 157 l 272 157 l 272 408 l 885 408 l 885 550 l 272 550 l 272 815 z "},"Ė":{"ha":972,"x_min":0,"x_max":0,"o":"m 499 1110 b 594 1199 560 1110 594 1151 b 499 1288 594 1246 560 1288 b 403 1199 438 1288 403 1246 b 499 1110 403 1151 438 1110 z m 913 815 l 913 972 l 93 972 l 93 0 l 913 0 l 913 157 l 272 157 l 272 408 l 885 408 l 885 550 l 272 550 l 272 815 z "},"È":{"ha":972,"x_min":0,"x_max":0,"o":"m 583 1065 l 468 1294 l 303 1294 l 418 1065 z m 913 815 l 913 972 l 93 972 l 93 0 l 913 0 l 913 157 l 272 157 l 272 408 l 885 408 l 885 550 l 272 550 l 272 815 z "},"Ē":{"ha":972,"x_min":0,"x_max":0,"o":"m 754 1294 l 244 1294 l 244 1142 l 754 1142 z m 913 815 l 913 972 l 93 972 l 93 0 l 913 0 l 913 157 l 272 157 l 272 408 l 885 408 l 885 550 l 272 550 l 272 815 z "},"Ę":{"ha":972,"x_min":0,"x_max":0,"o":"m 913 815 l 913 972 l 93 972 l 93 0 l 753 0 b 600 -194 675 -35 600 -93 b 783 -347 600 -282 657 -347 b 869 -333 814 -347 844 -343 l 869 -217 l 851 -218 b 743 -140 790 -222 743 -197 b 910 0 743 -86 783 -29 l 913 0 l 913 157 l 272 157 l 272 408 l 885 408 l 885 550 l 272 550 l 272 815 z "},"F":{"ha":972,"x_min":0,"x_max":0,"o":"m 913 814 l 913 972 l 93 972 l 93 0 l 272 0 l 272 372 l 879 372 l 879 532 l 272 532 l 272 814 z "},"G":{"ha":1129,"x_min":0,"x_max":0,"o":"m 581 376 l 865 376 l 865 215 b 607 135 797 157 704 135 b 239 483 354 135 239 289 b 585 829 239 681 358 829 b 861 644 725 829 821 772 l 1036 644 b 579 993 994 861 831 993 b 58 486 251 993 58 769 b 594 -21 58 200 247 -21 b 1036 160 758 -21 922 29 l 1036 514 l 581 514 z "},"Ğ":{"ha":1129,"x_min":0,"x_max":0,"o":"m 558 1033 b 822 1294 750 1033 833 1135 l 671 1294 b 558 1160 681 1206 639 1160 b 446 1294 478 1160 436 1206 l 294 1294 b 558 1033 283 1135 367 1033 z m 581 376 l 865 376 l 865 215 b 607 135 797 157 704 135 b 239 483 354 135 239 289 b 585 829 239 681 358 829 b 861 644 725 829 821 772 l 1036 644 b 579 993 994 861 831 993 b 58 486 251 993 58 769 b 594 -21 58 200 247 -21 b 1036 160 758 -21 922 29 l 1036 514 l 581 514 z "},"Ģ":{"ha":1129,"x_min":0,"x_max":0,"o":"m 581 376 l 865 376 l 865 215 b 607 135 797 157 704 135 b 239 483 354 135 239 289 b 585 829 239 681 358 829 b 861 644 725 829 821 772 l 1036 644 b 579 993 994 861 831 993 b 58 486 251 993 58 769 b 594 -21 58 200 247 -21 b 1036 160 758 -21 922 29 l 1036 514 l 581 514 z m 406 -404 l 565 -404 l 688 -81 l 526 -81 z "},"Ġ":{"ha":1129,"x_min":0,"x_max":0,"o":"m 558 1110 b 654 1199 619 1110 654 1151 b 558 1288 654 1246 619 1288 b 463 1199 497 1288 463 1246 b 558 1110 463 1151 497 1110 z m 581 376 l 865 376 l 865 215 b 607 135 797 157 704 135 b 239 483 354 135 239 289 b 585 829 239 681 358 829 b 861 644 725 829 821 772 l 1036 644 b 579 993 994 861 831 993 b 58 486 251 993 58 769 b 594 -21 58 200 247 -21 b 1036 160 758 -21 922 29 l 1036 514 l 581 514 z "},"H":{"ha":1118,"x_min":0,"x_max":0,"o":"m 846 972 l 846 533 l 272 533 l 272 972 l 93 972 l 93 0 l 272 0 l 272 381 l 846 381 l 846 0 l 1025 0 l 1025 972 z "},"Ħ":{"ha":1118,"x_min":0,"x_max":0,"o":"m 846 972 l 846 808 l 272 808 l 272 972 l 93 972 l 93 0 l 272 0 l 272 381 l 846 381 l 846 0 l 1025 0 l 1025 972 z m 272 533 l 272 656 l 846 656 l 846 533 z "},"I":{"ha":365,"x_min":0,"x_max":0,"o":"m 93 0 l 272 0 l 272 972 l 93 972 z "},"Ĳ":{"ha":1393,"x_min":0,"x_max":0,"o":"m 93 0 l 272 0 l 272 972 l 93 972 z m 861 -21 b 1300 393 1165 -21 1300 117 l 1300 972 l 1121 972 l 1121 393 b 861 143 1121 219 1053 143 b 603 388 671 143 603 219 l 424 388 b 861 -21 424 115 558 -21 z "},"Í":{"ha":365,"x_min":0,"x_max":0,"o":"m 117 1065 l 282 1065 l 397 1294 l 232 1294 z m 93 0 l 272 0 l 272 972 l 93 972 z "},"Ǐ":{"ha":365,"x_min":0,"x_max":0,"o":"m 260 1294 l 182 1140 l 104 1294 l -57 1294 l 58 1065 l 307 1065 l 422 1294 z m 93 0 l 272 0 l 272 972 l 93 972 z "},"Î":{"ha":365,"x_min":0,"x_max":0,"o":"m 182 1219 l 260 1065 l 422 1065 l 307 1294 l 58 1294 l -57 1065 l 104 1065 z m 93 0 l 272 0 l 272 972 l 93 972 z "},"Ï":{"ha":365,"x_min":0,"x_max":0,"o":"m -11 1110 b 85 1199 50 1110 85 1151 b -11 1288 85 1246 50 1288 b -107 1199 -72 1288 -107 1246 b -11 1110 -107 1151 -72 1110 z m 376 1110 b 472 1199 438 1110 472 1151 b 376 1288 472 1246 438 1288 b 281 1199 315 1288 281 1246 b 376 1110 281 1151 315 1110 z m 93 0 l 272 0 l 272 972 l 93 972 z "},"İ":{"ha":365,"x_min":0,"x_max":0,"o":"m 183 1110 b 279 1199 244 1110 279 1151 b 183 1288 279 1246 244 1288 b 88 1199 122 1288 88 1246 b 183 1110 88 1151 122 1110 z m 93 0 l 272 0 l 272 972 l 93 972 z "},"Ì":{"ha":365,"x_min":0,"x_max":0,"o":"m 267 1065 l 151 1294 l -14 1294 l 101 1065 z m 93 0 l 272 0 l 272 972 l 93 972 z "},"Ī":{"ha":365,"x_min":0,"x_max":0,"o":"m -72 1142 l 438 1142 l 438 1294 l -72 1294 z m 93 0 l 272 0 l 272 972 l 93 972 z "},"Į":{"ha":365,"x_min":0,"x_max":0,"o":"m 93 972 l 93 6 b -72 -194 11 -28 -72 -89 b 111 -347 -72 -282 -15 -347 b 197 -333 142 -347 172 -343 l 197 -217 l 179 -218 b 71 -140 118 -222 71 -197 b 238 0 71 -86 111 -29 l 272 0 l 272 972 z "},"J":{"ha":1028,"x_min":0,"x_max":0,"o":"m 496 -21 b 935 393 800 -21 935 117 l 935 972 l 756 972 l 756 393 b 496 143 756 219 688 143 b 238 388 306 143 238 219 l 58 388 b 496 -21 58 115 193 -21 z "},"K":{"ha":1115,"x_min":0,"x_max":0,"o":"m 1085 0 l 675 503 l 1054 972 l 847 972 l 268 242 l 268 972 l 93 972 l 93 0 l 268 0 l 569 374 l 875 0 z "},"Ķ":{"ha":1115,"x_min":0,"x_max":0,"o":"m 675 503 l 1054 972 l 847 972 l 268 242 l 268 972 l 93 972 l 93 0 l 268 0 l 569 374 l 875 0 l 1085 0 z m 340 -365 l 501 -365 l 622 -42 l 463 -42 z "},"L":{"ha":954,"x_min":0,"x_max":0,"o":"m 272 158 l 272 972 l 93 972 l 93 0 l 896 0 l 896 158 z "},"Ĺ":{"ha":954,"x_min":0,"x_max":0,"o":"m 383 1294 l 218 1294 l 103 1065 l 268 1065 z m 272 158 l 272 972 l 93 972 l 93 0 l 896 0 l 896 158 z "},"Ľ":{"ha":954,"x_min":0,"x_max":0,"o":"m 474 792 l 472 692 b 586 864 535 724 586 790 l 586 874 b 481 983 586 932 546 983 b 379 886 419 983 379 940 b 474 792 379 835 417 794 z m 272 158 l 272 972 l 93 972 l 93 0 l 896 0 l 896 158 z "},"Ļ":{"ha":954,"x_min":0,"x_max":0,"o":"m 272 158 l 272 972 l 93 972 l 93 0 l 896 0 l 896 158 z m 299 -365 l 458 -365 l 581 -42 l 419 -42 z "},"Ł":{"ha":954,"x_min":0,"x_max":0,"o":"m 272 158 l 272 492 l 503 517 l 503 654 l 272 629 l 272 972 l 93 972 l 93 610 l -7 599 l -7 461 l 93 472 l 93 0 l 896 0 l 896 158 z "},"M":{"ha":1371,"x_min":0,"x_max":0,"o":"m 93 0 l 271 0 l 271 782 l 285 782 l 582 1 l 788 1 l 1086 782 l 1100 782 l 1100 0 l 1278 0 l 1278 972 l 989 972 l 692 181 l 679 181 l 382 972 l 93 972 z "},"N":{"ha":1114,"x_min":0,"x_max":0,"o":"m 93 0 l 272 0 l 272 624 l 271 764 l 282 764 l 790 0 l 1021 0 l 1021 972 l 842 972 l 842 349 l 843 208 l 831 208 l 324 972 l 93 972 z "},"Ń":{"ha":1114,"x_min":0,"x_max":0,"o":"m 490 1065 l 656 1065 l 771 1294 l 606 1294 z m 93 0 l 272 0 l 272 624 l 271 764 l 282 764 l 790 0 l 1021 0 l 1021 972 l 842 972 l 842 349 l 843 208 l 831 208 l 324 972 l 93 972 z "},"Ň":{"ha":1114,"x_min":0,"x_max":0,"o":"m 433 1065 l 682 1065 l 797 1294 l 635 1294 l 557 1140 l 479 1294 l 318 1294 z m 842 972 l 842 349 l 843 208 l 831 208 l 324 972 l 93 972 l 93 0 l 272 0 l 272 624 l 271 764 l 282 764 l 790 0 l 1021 0 l 1021 972 z "},"Ņ":{"ha":1114,"x_min":0,"x_max":0,"o":"m 93 0 l 272 0 l 272 624 l 271 764 l 282 764 l 790 0 l 1021 0 l 1021 972 l 842 972 l 842 349 l 843 208 l 831 208 l 324 972 l 93 972 z m 397 -365 l 558 -365 l 679 -42 l 519 -42 z "},"Ŋ":{"ha":1114,"x_min":0,"x_max":0,"o":"m 1021 972 l 840 972 l 840 208 l 831 208 l 324 972 l 93 972 l 93 0 l 272 0 l 272 624 l 271 764 l 282 764 l 790 0 l 840 0 b 701 -137 840 -85 801 -137 l 667 -137 l 667 -278 l 726 -278 b 1021 -1 932 -278 1021 -185 z "},"Ñ":{"ha":1114,"x_min":0,"x_max":0,"o":"m 421 1103 b 689 1165 535 1103 582 1165 b 838 1121 729 1165 788 1156 l 838 1256 b 693 1299 794 1286 743 1299 b 425 1236 579 1299 532 1236 b 276 1281 383 1236 326 1246 l 276 1146 b 421 1103 319 1115 371 1103 z m 93 0 l 272 0 l 272 624 l 271 764 l 282 764 l 790 0 l 1021 0 l 1021 972 l 842 972 l 842 349 l 843 208 l 831 208 l 324 972 l 93 972 z "},"O":{"ha":1158,"x_min":0,"x_max":0,"o":"m 579 -21 b 1100 486 908 -21 1100 204 b 579 993 1100 768 908 993 b 58 486 250 993 58 768 b 579 -21 58 204 250 -21 z m 579 143 b 239 486 357 143 239 293 b 579 829 239 681 357 829 b 919 486 801 829 919 681 b 579 143 919 293 801 143 z "},"Ó":{"ha":1158,"x_min":0,"x_max":0,"o":"m 513 1065 l 678 1065 l 793 1294 l 628 1294 z m 579 -21 b 1100 486 908 -21 1100 204 b 579 993 1100 768 908 993 b 58 486 250 993 58 768 b 579 -21 58 204 250 -21 z m 579 143 b 239 486 357 143 239 293 b 579 829 239 681 357 829 b 919 486 801 829 919 681 b 579 143 919 293 801 143 z "},"Ǒ":{"ha":1158,"x_min":0,"x_max":0,"o":"m 454 1065 l 703 1065 l 818 1294 l 656 1294 l 578 1140 l 500 1294 l 339 1294 z m 579 993 b 58 486 250 993 58 768 b 579 -21 58 204 250 -21 b 1100 486 908 -21 1100 204 b 579 993 1100 768 908 993 z m 579 143 b 239 486 357 143 239 293 b 579 829 239 681 357 829 b 919 486 801 829 919 681 b 579 143 919 293 801 143 z "},"Ô":{"ha":1158,"x_min":0,"x_max":0,"o":"m 578 1219 l 656 1065 l 818 1065 l 703 1294 l 454 1294 l 339 1065 l 500 1065 z m 579 993 b 58 486 250 993 58 768 b 579 -21 58 204 250 -21 b 1100 486 908 -21 1100 204 b 579 993 1100 768 908 993 z m 579 143 b 239 486 357 143 239 293 b 579 829 239 681 357 829 b 919 486 801 829 919 681 b 579 143 919 293 801 143 z "},"Ö":{"ha":1158,"x_min":0,"x_max":0,"o":"m 385 1110 b 481 1199 446 1110 481 1151 b 385 1288 481 1246 446 1288 b 289 1199 324 1288 289 1246 b 385 1110 289 1151 324 1110 z m 772 1110 b 868 1199 833 1110 868 1151 b 772 1288 868 1246 833 1288 b 676 1199 711 1288 676 1246 b 772 1110 676 1151 711 1110 z m 579 -21 b 1100 486 908 -21 1100 204 b 579 993 1100 768 908 993 b 58 486 250 993 58 768 b 579 -21 58 204 250 -21 z m 579 143 b 239 486 357 143 239 293 b 579 829 239 681 357 829 b 919 486 801 829 919 681 b 579 143 919 293 801 143 z "},"Ò":{"ha":1158,"x_min":0,"x_max":0,"o":"m 663 1065 l 547 1294 l 382 1294 l 497 1065 z m 579 -21 b 1100 486 908 -21 1100 204 b 579 993 1100 768 908 993 b 58 486 250 993 58 768 b 579 -21 58 204 250 -21 z m 579 143 b 239 486 357 143 239 293 b 579 829 239 681 357 829 b 919 486 801 829 919 681 b 579 143 919 293 801 143 z "},"Ő":{"ha":1158,"x_min":0,"x_max":0,"o":"m 372 1038 l 538 1038 l 653 1267 l 488 1267 z m 601 1038 l 767 1038 l 882 1267 l 717 1267 z m 579 -21 b 1100 486 908 -21 1100 204 b 579 993 1100 768 908 993 b 58 486 250 993 58 768 b 579 -21 58 204 250 -21 z m 579 143 b 239 486 357 143 239 293 b 579 829 239 681 357 829 b 919 486 801 829 919 681 b 579 143 919 293 801 143 z "},"Ō":{"ha":1158,"x_min":0,"x_max":0,"o":"m 324 1142 l 833 1142 l 833 1294 l 324 1294 z m 579 -21 b 1100 486 908 -21 1100 204 b 579 993 1100 768 908 993 b 58 486 250 993 58 768 b 579 -21 58 204 250 -21 z m 579 143 b 239 486 357 143 239 293 b 579 829 239 681 357 829 b 919 486 801 829 919 681 b 579 143 919 293 801 143 z "},"Ø":{"ha":1158,"x_min":0,"x_max":0,"o":"m 990 814 l 1067 890 l 985 972 l 907 894 b 579 993 822 957 713 993 b 58 486 250 993 58 768 b 169 157 58 360 97 244 l 93 81 l 176 0 l 253 76 b 579 -21 338 15 447 -21 b 1100 486 908 -21 1100 204 b 990 814 1100 611 1063 726 z m 239 486 b 579 829 239 681 357 829 b 785 772 663 829 731 808 l 294 282 b 239 486 258 339 239 408 z m 579 143 b 376 200 497 143 429 164 l 865 689 b 919 486 901 632 919 563 b 579 143 919 293 801 143 z "},"Õ":{"ha":1158,"x_min":0,"x_max":0,"o":"m 443 1103 b 711 1165 557 1103 604 1165 b 860 1121 751 1165 810 1156 l 860 1256 b 715 1299 817 1286 765 1299 b 447 1236 601 1299 554 1236 b 299 1281 406 1236 349 1246 l 299 1146 b 443 1103 342 1115 393 1103 z m 579 -21 b 1100 486 908 -21 1100 204 b 579 993 1100 768 908 993 b 58 486 250 993 58 768 b 579 -21 58 204 250 -21 z m 579 143 b 239 486 357 143 239 293 b 579 829 239 681 357 829 b 919 486 801 829 919 681 b 579 143 919 293 801 143 z "},"Œ":{"ha":1800,"x_min":0,"x_max":0,"o":"m 1740 815 l 1740 972 l 922 972 l 922 882 b 579 993 836 951 721 993 b 58 486 250 993 58 768 b 579 -21 58 204 250 -21 b 922 90 721 -21 836 21 l 922 0 l 1740 0 l 1740 157 l 1100 157 l 1100 408 l 1714 408 l 1714 550 l 1100 550 l 1100 815 z m 579 143 b 239 486 357 143 239 293 b 579 829 239 681 357 829 b 919 486 801 829 919 681 b 579 143 919 293 801 143 z "},"P":{"ha":1065,"x_min":0,"x_max":0,"o":"m 608 972 l 93 972 l 93 0 l 272 0 l 272 244 l 608 244 b 990 608 876 244 990 399 b 608 972 990 819 876 972 z m 586 403 l 272 403 l 272 814 l 586 814 b 811 608 731 814 811 756 b 586 403 811 463 731 403 z "},"Þ":{"ha":1058,"x_min":0,"x_max":0,"o":"m 611 856 l 272 856 l 272 972 l 93 972 l 93 0 l 272 0 l 272 117 l 611 117 b 993 486 888 117 993 274 b 611 856 993 699 888 856 z m 583 279 l 272 279 l 272 694 l 583 694 b 814 486 736 694 814 631 b 583 279 814 342 736 279 z "},"Q":{"ha":1158,"x_min":0,"x_max":0,"o":"m 1100 486 b 579 993 1100 768 908 993 b 58 486 250 993 58 768 b 500 -17 58 228 219 17 l 500 -146 l 658 -146 l 658 -17 b 1100 486 939 17 1100 228 z m 658 150 l 658 386 l 500 386 l 500 150 b 239 486 329 182 239 318 b 579 829 239 681 357 829 b 919 486 801 829 919 681 b 658 150 919 318 829 182 z "},"R":{"ha":1053,"x_min":0,"x_max":0,"o":"m 1001 0 l 813 340 b 990 639 936 393 990 504 b 625 972 990 828 885 972 l 93 972 l 93 0 l 272 0 l 272 307 l 625 307 l 651 307 l 821 0 z m 272 814 l 600 814 b 813 639 740 814 813 764 b 600 465 813 514 740 465 l 272 465 z "},"Ŕ":{"ha":1053,"x_min":0,"x_max":0,"o":"m 753 1294 l 588 1294 l 472 1065 l 638 1065 z m 1001 0 l 813 340 b 990 639 936 393 990 504 b 625 972 990 828 885 972 l 93 972 l 93 0 l 272 0 l 272 307 l 625 307 l 651 307 l 821 0 z m 272 814 l 600 814 b 813 639 740 814 813 764 b 600 465 813 514 740 465 l 272 465 z "},"Ř":{"ha":1053,"x_min":0,"x_max":0,"o":"m 415 1065 l 664 1065 l 779 1294 l 617 1294 l 539 1140 l 461 1294 l 300 1294 z m 1001 0 l 813 340 b 990 639 936 393 990 504 b 625 972 990 828 885 972 l 93 972 l 93 0 l 272 0 l 272 307 l 625 307 l 651 307 l 821 0 z m 272 814 l 600 814 b 813 639 740 814 813 764 b 600 465 813 514 740 465 l 272 465 z "},"Ŗ":{"ha":1053,"x_min":0,"x_max":0,"o":"m 1001 0 l 813 340 b 990 639 936 393 990 504 b 625 972 990 828 885 972 l 93 972 l 93 0 l 272 0 l 272 307 l 625 307 l 651 307 l 821 0 z m 272 814 l 600 814 b 813 639 740 814 813 764 b 600 465 813 514 740 465 l 272 465 z m 335 -365 l 496 -365 l 617 -42 l 456 -42 z "},"S":{"ha":997,"x_min":0,"x_max":0,"o":"m 481 -21 l 482 -21 b 939 285 808 -21 939 92 b 603 565 939 468 828 544 l 447 579 b 256 710 322 592 256 624 b 497 846 256 803 335 846 b 757 701 643 846 733 811 l 922 701 b 506 993 907 950 703 993 b 75 710 201 993 75 889 b 410 432 75 536 190 453 l 567 418 b 757 282 697 406 757 375 b 496 126 757 169 661 126 b 224 271 354 126 246 157 l 58 271 b 481 -21 75 14 299 -21 z "},"Ś":{"ha":997,"x_min":0,"x_max":0,"o":"m 433 1065 l 599 1065 l 714 1294 l 549 1294 z m 481 -21 l 482 -21 b 939 285 808 -21 939 92 b 603 565 939 468 828 544 l 447 579 b 256 710 322 592 256 624 b 497 846 256 803 335 846 b 757 701 643 846 733 811 l 922 701 b 506 993 907 950 703 993 b 75 710 201 993 75 889 b 410 432 75 536 190 453 l 567 418 b 757 282 697 406 757 375 b 496 126 757 169 661 126 b 224 271 354 126 246 157 l 58 271 b 481 -21 75 14 299 -21 z "},"Š":{"ha":997,"x_min":0,"x_max":0,"o":"m 376 1065 l 625 1065 l 740 1294 l 578 1294 l 500 1140 l 422 1294 l 261 1294 z m 603 565 l 447 579 b 256 710 322 592 256 624 b 497 846 256 803 335 846 b 757 701 643 846 733 811 l 922 701 b 506 993 907 950 703 993 b 75 710 201 993 75 889 b 410 432 75 536 190 453 l 567 418 b 757 282 697 406 757 375 b 496 126 757 169 661 126 b 224 271 354 126 246 157 l 58 271 b 481 -21 75 14 299 -21 l 482 -21 b 939 285 808 -21 939 92 b 603 565 939 468 828 544 z "},"Ş":{"ha":997,"x_min":0,"x_max":0,"o":"m 939 285 b 603 565 939 468 828 544 l 447 579 b 256 710 322 592 256 624 b 497 846 256 803 335 846 b 757 701 643 846 733 811 l 922 701 b 506 993 907 950 703 993 b 75 710 201 993 75 889 b 410 432 75 536 190 453 l 567 418 b 757 282 697 406 757 375 b 496 126 757 169 661 126 b 224 271 354 126 246 157 l 58 271 b 446 -21 74 29 272 -15 l 379 -143 l 506 -143 b 561 -196 542 -143 561 -167 b 504 -249 561 -225 542 -249 b 457 -231 482 -249 468 -240 l 408 -297 b 515 -337 429 -321 468 -337 b 661 -196 603 -337 661 -282 b 528 -61 661 -115 606 -61 l 513 -61 l 538 -19 b 939 285 824 -7 939 103 z "},"Ș":{"ha":997,"x_min":0,"x_max":0,"o":"m 481 -21 l 482 -21 b 939 285 808 -21 939 92 b 603 565 939 468 828 544 l 447 579 b 256 710 322 592 256 624 b 497 846 256 803 335 846 b 757 701 643 846 733 811 l 922 701 b 506 993 907 950 703 993 b 75 710 201 993 75 889 b 410 432 75 536 190 453 l 567 418 b 757 282 697 406 757 375 b 496 126 757 169 661 126 b 224 271 354 126 246 157 l 58 271 b 481 -21 75 14 299 -21 z m 313 -365 l 474 -365 l 594 -42 l 435 -42 z "},"ẞ":{"ha":981,"x_min":0,"x_max":0,"o":"m 618 597 l 850 803 l 850 972 l 351 972 b 93 710 174 972 93 874 l 93 0 l 272 0 l 272 683 b 394 810 272 769 310 810 l 658 810 l 421 592 l 421 475 l 550 475 b 742 318 675 475 742 435 b 547 163 742 201 675 163 l 421 163 l 421 0 l 565 0 b 921 306 808 0 921 113 b 618 597 921 500 807 589 z "},"T":{"ha":1006,"x_min":0,"x_max":0,"o":"m 958 972 l 47 972 l 47 814 l 414 814 l 414 0 l 592 0 l 592 814 l 958 814 z "},"Ŧ":{"ha":1006,"x_min":0,"x_max":0,"o":"m 958 814 l 958 972 l 47 972 l 47 814 l 414 814 l 414 569 l 88 569 l 88 407 l 414 407 l 414 0 l 592 0 l 592 407 l 919 407 l 919 569 l 592 569 l 592 814 z "},"Ť":{"ha":1006,"x_min":0,"x_max":0,"o":"m 379 1065 l 628 1065 l 743 1294 l 581 1294 l 503 1140 l 425 1294 l 264 1294 z m 958 972 l 47 972 l 47 814 l 414 814 l 414 0 l 592 0 l 592 814 l 958 814 z "},"Ţ":{"ha":1006,"x_min":0,"x_max":0,"o":"m 592 0 l 592 814 l 958 814 l 958 972 l 47 972 l 47 814 l 414 814 l 414 0 l 460 0 l 382 -143 l 508 -143 b 564 -196 544 -143 564 -167 b 507 -249 564 -225 544 -249 b 460 -231 485 -249 471 -240 l 411 -297 b 518 -337 432 -321 471 -337 b 664 -196 606 -337 664 -282 b 531 -61 664 -115 608 -61 l 515 -61 l 551 0 z "},"Ț":{"ha":1006,"x_min":0,"x_max":0,"o":"m 958 972 l 47 972 l 47 814 l 414 814 l 414 0 l 592 0 l 592 814 l 958 814 z m 271 -365 l 432 -365 l 553 -42 l 393 -42 z "},"U":{"ha":1088,"x_min":0,"x_max":0,"o":"m 544 -21 b 994 413 854 -21 994 136 l 994 972 l 815 972 l 815 411 b 544 143 815 236 732 143 b 272 411 356 143 272 236 l 272 972 l 93 972 l 93 413 b 544 -21 93 136 233 -21 z "},"Ú":{"ha":1088,"x_min":0,"x_max":0,"o":"m 476 1065 l 642 1065 l 757 1294 l 592 1294 z m 544 -21 b 994 413 854 -21 994 136 l 994 972 l 815 972 l 815 411 b 544 143 815 236 732 143 b 272 411 356 143 272 236 l 272 972 l 93 972 l 93 413 b 544 -21 93 136 233 -21 z "},"Ŭ":{"ha":1088,"x_min":0,"x_max":0,"o":"m 544 1033 b 808 1294 736 1033 819 1135 l 657 1294 b 544 1160 667 1206 625 1160 b 432 1294 464 1160 422 1206 l 281 1294 b 544 1033 269 1135 353 1033 z m 544 -21 b 994 413 854 -21 994 136 l 994 972 l 815 972 l 815 411 b 544 143 815 236 732 143 b 272 411 356 143 272 236 l 272 972 l 93 972 l 93 413 b 544 -21 93 136 233 -21 z "},"Ǔ":{"ha":1088,"x_min":0,"x_max":0,"o":"m 419 1065 l 668 1065 l 783 1294 l 621 1294 l 543 1140 l 465 1294 l 304 1294 z m 815 972 l 815 411 b 544 143 815 236 732 143 b 272 411 356 143 272 236 l 272 972 l 93 972 l 93 413 b 544 -21 93 136 233 -21 b 994 413 854 -21 994 136 l 994 972 z "},"Û":{"ha":1088,"x_min":0,"x_max":0,"o":"m 543 1219 l 621 1065 l 783 1065 l 668 1294 l 419 1294 l 304 1065 l 465 1065 z m 815 972 l 815 411 b 544 143 815 236 732 143 b 272 411 356 143 272 236 l 272 972 l 93 972 l 93 413 b 544 -21 93 136 233 -21 b 994 413 854 -21 994 136 l 994 972 z "},"Ü":{"ha":1088,"x_min":0,"x_max":0,"o":"m 350 1110 b 446 1199 411 1110 446 1151 b 350 1288 446 1246 411 1288 b 254 1199 289 1288 254 1246 b 350 1110 254 1151 289 1110 z m 738 1110 b 833 1199 799 1110 833 1151 b 738 1288 833 1246 799 1288 b 642 1199 676 1288 642 1246 b 738 1110 642 1151 676 1110 z m 544 -21 b 994 413 854 -21 994 136 l 994 972 l 815 972 l 815 411 b 544 143 815 236 732 143 b 272 411 356 143 272 236 l 272 972 l 93 972 l 93 413 b 544 -21 93 136 233 -21 z "},"Ù":{"ha":1088,"x_min":0,"x_max":0,"o":"m 628 1065 l 513 1294 l 347 1294 l 463 1065 z m 544 -21 b 994 413 854 -21 994 136 l 994 972 l 815 972 l 815 411 b 544 143 815 236 732 143 b 272 411 356 143 272 236 l 272 972 l 93 972 l 93 413 b 544 -21 93 136 233 -21 z "},"Ű":{"ha":1088,"x_min":0,"x_max":0,"o":"m 338 1038 l 503 1038 l 618 1267 l 453 1267 z m 567 1038 l 732 1038 l 847 1267 l 682 1267 z m 544 -21 b 994 413 854 -21 994 136 l 994 972 l 815 972 l 815 411 b 544 143 815 236 732 143 b 272 411 356 143 272 236 l 272 972 l 93 972 l 93 413 b 544 -21 93 136 233 -21 z "},"Ū":{"ha":1088,"x_min":0,"x_max":0,"o":"m 289 1142 l 799 1142 l 799 1294 l 289 1294 z m 544 -21 b 994 413 854 -21 994 136 l 994 972 l 815 972 l 815 411 b 544 143 815 236 732 143 b 272 411 356 143 272 236 l 272 972 l 93 972 l 93 413 b 544 -21 93 136 233 -21 z "},"Ų":{"ha":1088,"x_min":0,"x_max":0,"o":"m 815 972 l 815 411 b 544 143 815 236 732 143 b 272 411 356 143 272 236 l 272 972 l 93 972 l 93 413 b 515 -21 93 144 225 -11 b 403 -194 454 -56 403 -111 b 586 -347 403 -282 460 -347 b 672 -333 617 -347 647 -343 l 672 -217 l 654 -218 b 546 -140 593 -222 546 -197 b 678 -10 546 -92 579 -40 b 994 413 894 31 994 179 l 994 972 z "},"Ů":{"ha":1088,"x_min":0,"x_max":0,"o":"m 544 1051 b 681 1183 631 1051 681 1113 b 544 1317 681 1256 631 1317 b 408 1183 458 1317 408 1256 b 544 1051 408 1113 458 1051 z m 544 1133 b 493 1183 511 1133 493 1156 b 544 1235 493 1213 511 1235 b 596 1183 578 1235 596 1213 b 544 1133 596 1156 578 1133 z m 544 -21 b 994 413 854 -21 994 136 l 994 972 l 815 972 l 815 411 b 544 143 815 236 732 143 b 272 411 356 143 272 236 l 272 972 l 93 972 l 93 413 b 544 -21 93 136 233 -21 z "},"V":{"ha":1108,"x_min":0,"x_max":0,"o":"m 890 972 l 554 197 l 217 972 l 31 972 l 457 0 l 650 0 l 1078 972 z "},"W":{"ha":1669,"x_min":0,"x_max":0,"o":"m 1453 972 l 1210 217 l 924 972 l 744 972 l 458 217 l 215 972 l 31 972 l 349 0 l 549 0 l 835 754 l 1119 0 l 1319 0 l 1639 972 z "},"Ẃ":{"ha":1669,"x_min":0,"x_max":0,"o":"m 1049 1294 l 883 1294 l 768 1065 l 933 1065 z m 1453 972 l 1210 217 l 924 972 l 744 972 l 458 217 l 215 972 l 31 972 l 349 0 l 549 0 l 835 754 l 1119 0 l 1319 0 l 1639 972 z "},"Ŵ":{"ha":1669,"x_min":0,"x_max":0,"o":"m 835 1219 l 913 1065 l 1075 1065 l 960 1294 l 711 1294 l 596 1065 l 757 1065 z m 1453 972 l 1210 217 l 924 972 l 744 972 l 458 217 l 215 972 l 31 972 l 349 0 l 549 0 l 835 754 l 1119 0 l 1319 0 l 1639 972 z "},"Ẅ":{"ha":1669,"x_min":0,"x_max":0,"o":"m 640 1110 b 736 1199 701 1110 736 1151 b 640 1288 736 1246 701 1288 b 544 1199 579 1288 544 1246 b 640 1110 544 1151 579 1110 z m 1028 1110 b 1124 1199 1089 1110 1124 1151 b 1028 1288 1124 1246 1089 1288 b 932 1199 967 1288 932 1246 b 1028 1110 932 1151 967 1110 z m 1453 972 l 1210 217 l 924 972 l 744 972 l 458 217 l 215 972 l 31 972 l 349 0 l 549 0 l 835 754 l 1119 0 l 1319 0 l 1639 972 z "},"Ẁ":{"ha":1669,"x_min":0,"x_max":0,"o":"m 918 1065 l 803 1294 l 638 1294 l 753 1065 z m 1453 972 l 1210 217 l 924 972 l 744 972 l 458 217 l 215 972 l 31 972 l 349 0 l 549 0 l 835 754 l 1119 0 l 1319 0 l 1639 972 z "},"X":{"ha":1099,"x_min":0,"x_max":0,"o":"m 31 0 l 251 0 l 549 368 l 847 0 l 1068 0 l 669 486 l 1064 972 l 844 972 l 549 604 l 254 972 l 35 972 l 429 486 z "},"Y":{"ha":1117,"x_min":0,"x_max":0,"o":"m 1086 972 l 896 972 l 563 413 l 553 413 l 219 972 l 31 972 l 469 236 l 469 0 l 649 0 l 649 240 z "},"Ý":{"ha":1117,"x_min":0,"x_max":0,"o":"m 772 1294 l 607 1294 l 492 1065 l 657 1065 z m 1086 972 l 896 972 l 563 413 l 553 413 l 219 972 l 31 972 l 469 236 l 469 0 l 649 0 l 649 240 z "},"Ŷ":{"ha":1117,"x_min":0,"x_max":0,"o":"m 557 1219 l 635 1065 l 797 1065 l 682 1294 l 433 1294 l 318 1065 l 479 1065 z m 1086 972 l 896 972 l 563 413 l 553 413 l 219 972 l 31 972 l 469 236 l 469 0 l 649 0 l 649 240 z "},"Ÿ":{"ha":1117,"x_min":0,"x_max":0,"o":"m 364 1110 b 460 1199 425 1110 460 1151 b 364 1288 460 1246 425 1288 b 268 1199 303 1288 268 1246 b 364 1110 268 1151 303 1110 z m 751 1110 b 847 1199 813 1110 847 1151 b 751 1288 847 1246 813 1288 b 656 1199 690 1288 656 1246 b 751 1110 656 1151 690 1110 z m 1086 972 l 896 972 l 563 413 l 553 413 l 219 972 l 31 972 l 469 236 l 469 0 l 649 0 l 649 240 z "},"Ỳ":{"ha":1117,"x_min":0,"x_max":0,"o":"m 642 1065 l 526 1294 l 361 1294 l 476 1065 z m 1086 972 l 896 972 l 563 413 l 553 413 l 219 972 l 31 972 l 469 236 l 469 0 l 649 0 l 649 240 z "},"Z":{"ha":1042,"x_min":0,"x_max":0,"o":"m 93 0 l 949 0 l 949 157 l 310 157 l 949 815 l 949 972 l 106 972 l 106 815 l 731 815 l 93 157 z "},"Ź":{"ha":1042,"x_min":0,"x_max":0,"o":"m 453 1065 l 618 1065 l 733 1294 l 568 1294 z m 93 0 l 949 0 l 949 157 l 310 157 l 949 815 l 949 972 l 106 972 l 106 815 l 731 815 l 93 157 z "},"Ž":{"ha":1042,"x_min":0,"x_max":0,"o":"m 396 1065 l 644 1065 l 760 1294 l 597 1294 l 519 1140 l 442 1294 l 281 1294 z m 949 972 l 106 972 l 106 815 l 731 815 l 93 157 l 93 0 l 949 0 l 949 157 l 310 157 l 949 815 z "},"Ż":{"ha":1042,"x_min":0,"x_max":0,"o":"m 519 1110 b 615 1199 581 1110 615 1151 b 519 1288 615 1246 581 1288 b 424 1199 458 1288 424 1246 b 519 1110 424 1151 458 1110 z m 93 0 l 949 0 l 949 157 l 310 157 l 949 815 l 949 972 l 106 972 l 106 815 l 731 815 l 93 157 z "},"a":{"ha":868,"x_min":0,"x_max":0,"o":"m 432 743 b 94 518 235 743 90 693 l 249 518 b 426 611 257 581 303 611 b 607 492 558 611 607 575 l 607 418 l 313 418 b 51 206 129 418 51 340 b 308 -21 51 58 144 -21 b 636 121 433 -21 564 24 l 618 81 l 633 0 l 782 0 l 782 511 b 432 743 782 663 678 743 z m 361 113 b 228 214 268 113 228 151 b 340 308 228 278 268 308 l 607 308 l 607 192 b 378 113 556 146 468 113 z "},"á":{"ha":868,"x_min":0,"x_max":0,"o":"m 657 1044 l 492 1044 l 376 815 l 542 815 z m 432 743 b 94 518 235 743 90 693 l 249 518 b 426 611 257 581 303 611 b 607 492 558 611 607 575 l 607 418 l 313 418 b 51 206 129 418 51 340 b 308 -21 51 58 144 -21 b 636 121 433 -21 564 24 l 618 81 l 633 0 l 782 0 l 782 511 b 432 743 782 663 678 743 z m 361 113 b 228 214 268 113 228 151 b 340 308 228 278 268 308 l 607 308 l 607 192 b 378 113 556 146 468 113 z "},"ă":{"ha":868,"x_min":0,"x_max":0,"o":"m 444 783 b 708 1044 636 783 719 885 l 557 1044 b 444 910 567 956 525 910 b 332 1044 364 910 322 956 l 181 1044 b 444 783 169 885 253 783 z m 432 743 b 94 518 235 743 90 693 l 249 518 b 426 611 257 581 303 611 b 607 492 558 611 607 575 l 607 418 l 313 418 b 51 206 129 418 51 340 b 308 -21 51 58 144 -21 b 636 121 433 -21 564 24 l 618 81 l 633 0 l 782 0 l 782 511 b 432 743 782 663 678 743 z m 361 113 b 228 214 268 113 228 151 b 340 308 228 278 268 308 l 607 308 l 607 192 b 378 113 556 146 468 113 z "},"ǎ":{"ha":868,"x_min":0,"x_max":0,"o":"m 319 815 l 568 815 l 683 1044 l 521 1044 l 443 890 l 365 1044 l 204 1044 z m 432 743 b 94 518 235 743 90 693 l 249 518 b 426 611 257 581 303 611 b 607 492 558 611 607 575 l 607 418 l 313 418 b 51 206 129 418 51 340 b 308 -21 51 58 144 -21 b 636 121 433 -21 564 24 l 618 81 l 633 0 l 782 0 l 782 511 b 432 743 782 663 678 743 z m 361 113 b 228 214 268 113 228 151 b 340 308 228 278 268 308 l 607 308 l 607 192 b 378 113 556 146 468 113 z "},"â":{"ha":868,"x_min":0,"x_max":0,"o":"m 443 969 l 521 815 l 683 815 l 568 1044 l 319 1044 l 204 815 l 365 815 z m 432 743 b 94 518 235 743 90 693 l 249 518 b 426 611 257 581 303 611 b 607 492 558 611 607 575 l 607 418 l 313 418 b 51 206 129 418 51 340 b 308 -21 51 58 144 -21 b 636 121 433 -21 564 24 l 618 81 l 633 0 l 782 0 l 782 511 b 432 743 782 663 678 743 z m 361 113 b 228 214 268 113 228 151 b 340 308 228 278 268 308 l 607 308 l 607 192 b 378 113 556 146 468 113 z "},"ä":{"ha":868,"x_min":0,"x_max":0,"o":"m 250 860 b 346 949 311 860 346 901 b 250 1038 346 996 311 1038 b 154 949 189 1038 154 996 b 250 860 154 901 189 860 z m 638 860 b 733 949 699 860 733 901 b 638 1038 733 996 699 1038 b 542 949 576 1038 542 996 b 638 860 542 901 576 860 z m 432 743 b 94 518 235 743 90 693 l 249 518 b 426 611 257 581 303 611 b 607 492 558 611 607 575 l 607 418 l 313 418 b 51 206 129 418 51 340 b 308 -21 51 58 144 -21 b 636 121 433 -21 564 24 l 618 81 l 633 0 l 782 0 l 782 511 b 432 743 782 663 678 743 z m 361 113 b 228 214 268 113 228 151 b 340 308 228 278 268 308 l 607 308 l 607 192 b 378 113 556 146 468 113 z "},"à":{"ha":868,"x_min":0,"x_max":0,"o":"m 528 815 l 413 1044 l 247 1044 l 363 815 z m 432 743 b 94 518 235 743 90 693 l 249 518 b 426 611 257 581 303 611 b 607 492 558 611 607 575 l 607 418 l 313 418 b 51 206 129 418 51 340 b 308 -21 51 58 144 -21 b 636 121 433 -21 564 24 l 618 81 l 633 0 l 782 0 l 782 511 b 432 743 782 663 678 743 z m 361 113 b 228 214 268 113 228 151 b 340 308 228 278 268 308 l 607 308 l 607 192 b 378 113 556 146 468 113 z "},"ā":{"ha":868,"x_min":0,"x_max":0,"o":"m 699 1044 l 189 1044 l 189 892 l 699 892 z m 432 743 b 94 518 235 743 90 693 l 249 518 b 426 611 257 581 303 611 b 607 492 558 611 607 575 l 607 418 l 313 418 b 51 206 129 418 51 340 b 308 -21 51 58 144 -21 b 636 121 433 -21 564 24 l 618 81 l 633 0 l 782 0 l 782 511 b 432 743 782 663 678 743 z m 361 113 b 228 214 268 113 228 151 b 340 308 228 278 268 308 l 607 308 l 607 192 b 378 113 556 146 468 113 z "},"ą":{"ha":868,"x_min":0,"x_max":0,"o":"m 432 743 b 94 518 235 743 90 693 l 249 518 b 426 611 257 581 303 611 b 607 492 558 611 607 575 l 607 418 l 313 418 b 51 206 129 418 51 340 b 308 -21 51 58 144 -21 b 636 121 433 -21 564 24 l 618 81 l 632 11 b 451 -194 544 -21 451 -82 b 635 -347 451 -282 508 -347 b 721 -333 665 -347 696 -343 l 721 -217 l 703 -218 b 594 -140 642 -222 594 -197 b 761 0 594 -86 635 -29 l 782 0 l 782 511 b 432 743 782 663 678 743 z m 361 113 b 228 214 268 113 228 151 b 340 308 228 278 268 308 l 607 308 l 607 192 b 378 113 556 146 468 113 z "},"å":{"ha":868,"x_min":0,"x_max":0,"o":"m 444 801 b 581 933 531 801 581 863 b 444 1067 581 1006 531 1067 b 308 933 358 1067 308 1006 b 444 801 308 863 358 801 z m 444 985 b 496 933 478 985 496 963 b 444 883 496 906 478 883 b 393 933 411 883 393 906 b 444 985 393 963 411 985 z m 432 743 b 94 518 235 743 90 693 l 249 518 b 426 611 257 581 303 611 b 607 492 558 611 607 575 l 607 418 l 313 418 b 51 206 129 418 51 340 b 308 -21 51 58 144 -21 b 636 121 433 -21 564 24 l 618 81 l 633 0 l 782 0 l 782 511 b 432 743 782 663 678 743 z m 361 113 b 228 214 268 113 228 151 b 340 308 228 278 268 308 l 607 308 l 607 192 b 378 113 556 146 468 113 z "},"ã":{"ha":868,"x_min":0,"x_max":0,"o":"m 575 915 b 724 871 615 915 674 906 l 724 1006 b 579 1049 681 1036 629 1049 b 311 986 465 1049 418 986 b 163 1031 269 986 213 996 l 163 896 b 307 853 206 865 257 853 b 575 915 421 853 468 915 z m 432 743 b 94 518 235 743 90 693 l 249 518 b 426 611 257 581 303 611 b 607 492 558 611 607 575 l 607 418 l 313 418 b 51 206 129 418 51 340 b 308 -21 51 58 144 -21 b 636 121 433 -21 564 24 l 618 81 l 633 0 l 782 0 l 782 511 b 432 743 782 663 678 743 z m 361 113 b 228 214 268 113 228 151 b 340 308 228 278 268 308 l 607 308 l 607 192 b 378 113 556 146 468 113 z "},"æ":{"ha":1439,"x_min":0,"x_max":0,"o":"m 782 303 l 1385 303 b 1003 743 1404 583 1249 743 b 725 647 885 743 792 707 b 433 743 678 710 586 743 b 93 518 276 743 106 707 l 247 518 b 429 611 264 578 301 611 b 607 490 558 611 607 576 l 607 418 l 332 418 b 51 201 135 418 51 332 b 333 -21 51 57 154 -21 b 676 129 465 -21 593 25 b 1004 -21 742 38 853 -21 b 1363 206 1197 -21 1325 76 l 1196 206 b 1015 114 1165 140 1099 114 b 782 303 875 114 800 186 z m 1003 613 b 1218 411 1122 613 1197 553 l 781 411 b 1003 613 794 539 868 613 z m 357 118 b 226 210 271 118 226 151 b 339 299 226 263 258 299 l 607 299 l 607 249 b 357 118 567 175 467 118 z "},"b":{"ha":939,"x_min":0,"x_max":0,"o":"m 525 743 b 229 561 396 743 297 685 l 260 629 l 260 986 l 86 986 l 86 0 l 257 0 l 260 114 b 525 -21 317 24 411 -21 b 888 361 746 -21 888 146 b 525 743 888 576 746 743 z m 488 132 b 257 361 346 132 257 228 b 488 590 257 494 346 590 b 717 361 631 590 717 494 b 488 132 717 228 631 132 z "},"c":{"ha":868,"x_min":0,"x_max":0,"o":"m 449 -21 b 817 269 661 -21 792 96 l 647 269 b 449 133 622 181 550 133 b 222 361 304 133 222 229 b 449 589 222 493 304 589 b 647 453 550 589 622 542 l 817 453 b 449 743 792 626 661 743 b 51 361 189 743 53 572 b 449 -21 50 150 189 -21 z "},"ć":{"ha":868,"x_min":0,"x_max":0,"o":"m 368 815 l 533 815 l 649 1044 l 483 1044 z m 449 -21 b 817 269 661 -21 792 96 l 647 269 b 449 133 622 181 550 133 b 222 361 304 133 222 229 b 449 589 222 493 304 589 b 647 453 550 589 622 542 l 817 453 b 449 743 792 626 661 743 b 51 361 189 743 53 572 b 449 -21 50 150 189 -21 z "},"č":{"ha":868,"x_min":0,"x_max":0,"o":"m 311 815 l 560 815 l 675 1044 l 513 1044 l 435 890 l 357 1044 l 196 1044 z m 449 133 b 222 361 304 133 222 229 b 449 589 222 493 304 589 b 647 453 550 589 622 542 l 817 453 b 449 743 792 626 661 743 b 51 361 189 743 53 572 b 449 -21 50 150 189 -21 b 817 269 661 -21 792 96 l 647 269 b 449 133 622 181 550 133 z "},"ç":{"ha":868,"x_min":0,"x_max":0,"o":"m 449 133 b 222 361 304 133 222 229 b 449 589 222 493 304 589 b 647 453 550 589 622 542 l 817 453 b 449 743 792 626 661 743 b 51 361 189 743 53 572 b 386 -17 50 168 167 8 l 317 -143 l 443 -143 b 499 -196 479 -143 499 -167 b 442 -249 499 -225 479 -249 b 394 -231 419 -249 406 -240 l 346 -297 b 453 -337 367 -321 406 -337 b 599 -196 540 -337 599 -282 b 465 -61 599 -115 543 -61 l 450 -61 l 474 -21 b 817 269 672 -11 793 103 l 647 269 b 449 133 622 181 550 133 z "},"ċ":{"ha":868,"x_min":0,"x_max":0,"o":"m 435 860 b 531 949 496 860 531 901 b 435 1038 531 996 496 1038 b 339 949 374 1038 339 996 b 435 860 339 901 374 860 z m 449 -21 b 817 269 661 -21 792 96 l 647 269 b 449 133 622 181 550 133 b 222 361 304 133 222 229 b 449 589 222 493 304 589 b 647 453 550 589 622 542 l 817 453 b 449 743 792 626 661 743 b 51 361 189 743 53 572 b 449 -21 50 150 189 -21 z "},"d":{"ha":939,"x_min":0,"x_max":0,"o":"m 679 986 l 679 629 l 710 561 b 414 743 642 685 543 743 b 51 361 194 743 51 576 b 414 -21 51 146 194 -21 b 679 113 526 -21 622 24 l 682 0 l 853 0 l 853 986 z m 451 132 b 222 361 308 132 222 228 b 451 590 222 494 308 590 b 682 361 593 590 682 494 b 451 132 682 228 593 132 z "},"ð":{"ha":903,"x_min":0,"x_max":0,"o":"m 708 713 l 600 849 l 753 849 l 753 972 l 503 972 l 414 1083 l 226 1083 l 315 972 l 129 972 l 129 849 l 413 849 l 499 740 b 449 743 482 742 465 743 b 51 368 190 743 51 575 b 451 -21 51 157 196 -21 b 851 367 704 -21 851 154 b 708 713 851 468 824 568 z m 451 138 b 226 361 311 138 226 235 b 451 585 226 488 311 585 b 676 361 593 585 676 488 b 451 138 676 235 593 138 z "},"ď":{"ha":1040,"x_min":0,"x_max":0,"o":"m 1003 1004 b 903 907 943 1004 903 961 b 996 813 903 856 939 815 l 994 713 b 1108 885 1057 744 1108 811 l 1108 894 b 1003 1004 1108 953 1068 1004 z m 679 629 l 710 561 b 414 743 642 685 543 743 b 51 361 194 743 51 576 b 414 -21 51 146 194 -21 b 679 113 526 -21 622 24 l 682 0 l 853 0 l 853 986 l 679 986 z m 451 132 b 222 361 308 132 222 228 b 451 590 222 494 308 590 b 682 361 593 590 682 494 b 451 132 682 228 593 132 z "},"đ":{"ha":932,"x_min":0,"x_max":0,"o":"m 918 907 l 853 907 l 853 986 l 679 986 l 679 907 l 465 907 l 465 781 l 679 781 l 679 629 l 710 561 b 414 743 642 685 543 743 b 51 361 194 743 51 576 b 414 -21 51 146 194 -21 b 679 113 526 -21 622 24 l 682 0 l 853 0 l 853 781 l 918 781 z m 451 132 b 222 361 308 132 222 228 b 451 590 222 494 308 590 b 682 361 593 590 682 494 b 451 132 682 228 593 132 z "},"e":{"ha":882,"x_min":0,"x_max":0,"o":"m 226 303 l 829 303 b 446 743 849 583 693 743 b 51 361 192 743 51 574 b 447 -21 51 147 190 -21 b 806 206 640 -21 769 76 l 639 206 b 460 114 608 140 542 114 b 226 303 319 114 244 186 z m 446 613 b 663 411 567 613 642 553 l 225 411 b 446 613 239 539 311 613 z "},"é":{"ha":882,"x_min":0,"x_max":0,"o":"m 656 1044 l 490 1044 l 375 815 l 540 815 z m 226 303 l 829 303 b 446 743 849 583 693 743 b 51 361 192 743 51 574 b 447 -21 51 147 190 -21 b 806 206 640 -21 769 76 l 639 206 b 460 114 608 140 542 114 b 226 303 319 114 244 186 z m 446 613 b 663 411 567 613 642 553 l 225 411 b 446 613 239 539 311 613 z "},"ě":{"ha":882,"x_min":0,"x_max":0,"o":"m 318 815 l 567 815 l 682 1044 l 519 1044 l 442 890 l 364 1044 l 203 1044 z m 226 303 l 829 303 b 446 743 849 583 693 743 b 51 361 192 743 51 574 b 447 -21 51 147 190 -21 b 806 206 640 -21 769 76 l 639 206 b 460 114 608 140 542 114 b 226 303 319 114 244 186 z m 446 613 b 663 411 567 613 642 553 l 225 411 b 446 613 239 539 311 613 z "},"ê":{"ha":882,"x_min":0,"x_max":0,"o":"m 442 969 l 519 815 l 682 815 l 567 1044 l 318 1044 l 203 815 l 364 815 z m 226 303 l 829 303 b 446 743 849 583 693 743 b 51 361 192 743 51 574 b 447 -21 51 147 190 -21 b 806 206 640 -21 769 76 l 639 206 b 460 114 608 140 542 114 b 226 303 319 114 244 186 z m 446 613 b 663 411 567 613 642 553 l 225 411 b 446 613 239 539 311 613 z "},"ë":{"ha":882,"x_min":0,"x_max":0,"o":"m 247 860 b 343 949 308 860 343 901 b 247 1038 343 996 308 1038 b 151 949 186 1038 151 996 b 247 860 151 901 186 860 z m 635 860 b 731 949 696 860 731 901 b 635 1038 731 996 696 1038 b 539 949 574 1038 539 996 b 635 860 539 901 574 860 z m 226 303 l 829 303 b 446 743 849 583 693 743 b 51 361 192 743 51 574 b 447 -21 51 147 190 -21 b 806 206 640 -21 769 76 l 639 206 b 460 114 608 140 542 114 b 226 303 319 114 244 186 z m 446 613 b 663 411 567 613 642 553 l 225 411 b 446 613 239 539 311 613 z "},"ė":{"ha":882,"x_min":0,"x_max":0,"o":"m 442 860 b 538 949 503 860 538 901 b 442 1038 538 996 503 1038 b 346 949 381 1038 346 996 b 442 860 346 901 381 860 z m 226 303 l 829 303 b 446 743 849 583 693 743 b 51 361 192 743 51 574 b 447 -21 51 147 190 -21 b 806 206 640 -21 769 76 l 639 206 b 460 114 608 140 542 114 b 226 303 319 114 244 186 z m 446 613 b 663 411 567 613 642 553 l 225 411 b 446 613 239 539 311 613 z "},"è":{"ha":882,"x_min":0,"x_max":0,"o":"m 525 815 l 410 1044 l 244 1044 l 360 815 z m 226 303 l 829 303 b 446 743 849 583 693 743 b 51 361 192 743 51 574 b 447 -21 51 147 190 -21 b 806 206 640 -21 769 76 l 639 206 b 460 114 608 140 542 114 b 226 303 319 114 244 186 z m 446 613 b 663 411 567 613 642 553 l 225 411 b 446 613 239 539 311 613 z "},"ē":{"ha":882,"x_min":0,"x_max":0,"o":"m 697 1044 l 188 1044 l 188 892 l 697 892 z m 226 303 l 829 303 b 446 743 849 583 693 743 b 51 361 192 743 51 574 b 447 -21 51 147 190 -21 b 806 206 640 -21 769 76 l 639 206 b 460 114 608 140 542 114 b 226 303 319 114 244 186 z m 446 613 b 663 411 567 613 642 553 l 225 411 b 446 613 239 539 311 613 z "},"ę":{"ha":882,"x_min":0,"x_max":0,"o":"m 226 303 l 829 303 b 446 743 849 583 693 743 b 51 361 192 743 51 574 b 393 -18 51 163 171 4 b 276 -194 329 -54 276 -110 b 460 -347 276 -282 333 -347 b 546 -333 490 -347 521 -343 l 546 -217 l 528 -218 b 419 -140 467 -222 419 -197 b 542 -12 419 -93 450 -43 b 806 206 682 14 776 99 l 639 206 b 460 114 608 140 542 114 b 226 303 319 114 244 186 z m 446 613 b 663 411 567 613 642 553 l 225 411 b 446 613 239 539 311 613 z "},"f":{"ha":610,"x_min":0,"x_max":0,"o":"m 483 878 l 563 878 l 563 1021 l 456 1021 b 201 769 267 1021 201 922 l 201 722 l 47 722 l 47 574 l 201 574 l 201 0 l 375 0 l 375 574 l 563 574 l 563 722 l 375 722 l 375 769 b 483 878 375 844 406 878 z "},"g":{"ha":919,"x_min":0,"x_max":0,"o":"m 424 -231 b 833 99 638 -231 833 -147 l 833 722 l 667 722 l 660 626 l 690 561 b 400 743 625 685 529 743 b 51 382 185 743 51 589 b 400 31 51 178 182 31 b 671 169 508 31 618 67 l 668 126 l 668 97 b 407 -97 668 -76 501 -97 b 153 -43 289 -97 199 -67 l 153 -165 b 424 -231 200 -200 299 -231 z m 440 168 b 222 382 301 168 222 264 b 440 597 222 503 301 597 b 663 382 579 597 663 504 b 440 168 663 263 579 168 z "},"ğ":{"ha":919,"x_min":0,"x_max":0,"o":"m 457 783 b 721 1044 649 783 732 885 l 569 1044 b 457 910 579 956 538 910 b 344 1044 376 910 335 956 l 193 1044 b 457 783 182 885 265 783 z m 424 -231 b 833 99 638 -231 833 -147 l 833 722 l 667 722 l 660 626 l 690 561 b 400 743 625 685 529 743 b 51 382 185 743 51 589 b 400 31 51 178 182 31 b 671 169 508 31 618 67 l 668 126 l 668 97 b 407 -97 668 -76 501 -97 b 153 -43 289 -97 199 -67 l 153 -165 b 424 -231 200 -200 299 -231 z m 440 168 b 222 382 301 168 222 264 b 440 597 222 503 301 597 b 663 382 579 597 663 504 b 440 168 663 263 579 168 z "},"ģ":{"ha":919,"x_min":0,"x_max":0,"o":"m 390 815 l 556 815 l 671 1044 l 506 1044 z m 424 -231 b 833 99 638 -231 833 -147 l 833 722 l 667 722 l 660 626 l 690 561 b 400 743 625 685 529 743 b 51 382 185 743 51 589 b 400 31 51 178 182 31 b 671 169 508 31 618 67 l 668 126 l 668 97 b 407 -97 668 -76 501 -97 b 153 -43 289 -97 199 -67 l 153 -165 b 424 -231 200 -200 299 -231 z m 440 168 b 222 382 301 168 222 264 b 440 597 222 503 301 597 b 663 382 579 597 663 504 b 440 168 663 263 579 168 z "},"ġ":{"ha":919,"x_min":0,"x_max":0,"o":"m 457 860 b 553 949 518 860 553 901 b 457 1038 553 996 518 1038 b 361 949 396 1038 361 996 b 457 860 361 901 396 860 z m 424 -231 b 833 99 638 -231 833 -147 l 833 722 l 667 722 l 660 626 l 690 561 b 400 743 625 685 529 743 b 51 382 185 743 51 589 b 400 31 51 178 182 31 b 671 169 508 31 618 67 l 668 126 l 668 97 b 407 -97 668 -76 501 -97 b 153 -43 289 -97 199 -67 l 153 -165 b 424 -231 200 -200 299 -231 z m 440 168 b 222 382 301 168 222 264 b 440 597 222 503 301 597 b 663 382 579 597 663 504 b 440 168 663 263 579 168 z "},"h":{"ha":926,"x_min":0,"x_max":0,"o":"m 536 743 b 240 563 375 743 290 665 l 260 617 l 260 986 l 86 986 l 86 0 l 260 0 l 260 376 b 474 590 260 518 343 590 b 667 381 603 590 667 518 l 667 0 l 840 0 l 840 414 b 536 743 840 619 740 743 z "},"ħ":{"ha":926,"x_min":0,"x_max":0,"o":"m 536 743 b 240 563 375 743 290 665 l 260 617 l 260 788 l 474 788 l 474 911 l 260 911 l 260 986 l 86 986 l 86 911 l 0 911 l 0 788 l 86 788 l 86 0 l 260 0 l 260 376 b 474 590 260 518 343 590 b 667 381 603 590 667 518 l 667 0 l 840 0 l 840 414 b 536 743 840 619 740 743 z "},"i":{"ha":350,"x_min":0,"x_max":0,"o":"m 175 857 b 271 947 236 857 271 899 b 175 1039 271 997 236 1039 b 79 947 114 1039 79 997 b 175 857 79 899 114 857 z m 89 0 l 263 0 l 263 722 l 89 722 z "},"ı":{"ha":332,"x_min":0,"x_max":0,"o":"m 79 0 l 253 0 l 253 722 l 79 722 z "},"í":{"ha":332,"x_min":0,"x_max":0,"o":"m 100 815 l 265 815 l 381 1044 l 215 1044 z m 79 0 l 253 0 l 253 722 l 79 722 z "},"ǐ":{"ha":332,"x_min":0,"x_max":0,"o":"m 243 1044 l 165 890 l 88 1044 l -74 1044 l 42 815 l 290 815 l 406 1044 z m 79 0 l 253 0 l 253 722 l 79 722 z "},"î":{"ha":332,"x_min":0,"x_max":0,"o":"m 165 969 l 243 815 l 406 815 l 290 1044 l 42 1044 l -74 815 l 88 815 z m 79 0 l 253 0 l 253 722 l 79 722 z "},"ï":{"ha":332,"x_min":0,"x_max":0,"o":"m -28 860 b 68 949 33 860 68 901 b -28 1038 68 996 33 1038 b -124 949 -89 1038 -124 996 b -28 860 -124 901 -89 860 z m 360 860 b 456 949 421 860 456 901 b 360 1038 456 996 421 1038 b 264 949 299 1038 264 996 b 360 860 264 901 299 860 z m 79 0 l 253 0 l 253 722 l 79 722 z "},"ì":{"ha":332,"x_min":0,"x_max":0,"o":"m 250 815 l 135 1044 l -31 1044 l 85 815 z m 79 0 l 253 0 l 253 722 l 79 722 z "},"ĳ":{"ha":700,"x_min":0,"x_max":0,"o":"m 175 857 b 271 947 236 857 271 899 b 175 1039 271 997 236 1039 b 79 947 114 1039 79 997 b 175 857 79 899 114 857 z m 525 856 b 621 947 586 856 621 899 b 525 1039 621 997 586 1039 b 429 947 464 1039 429 997 b 525 856 429 899 464 856 z m 89 0 l 263 0 l 263 722 l 89 722 z m 438 -215 l 613 -215 l 613 722 l 438 722 z "},"ī":{"ha":332,"x_min":0,"x_max":0,"o":"m -89 892 l 421 892 l 421 1044 l -89 1044 z m 79 0 l 253 0 l 253 722 l 79 722 z "},"į":{"ha":332,"x_min":0,"x_max":0,"o":"m 167 860 b 263 949 228 860 263 901 b 167 1038 263 996 228 1038 b 71 949 106 1038 71 996 b 167 860 71 901 106 860 z m 79 3 b -81 -194 -1 -31 -81 -90 b 103 -347 -81 -282 -24 -347 b 189 -333 133 -347 164 -343 l 189 -217 l 171 -218 b 63 -140 110 -222 63 -197 b 229 0 63 -86 103 -29 l 253 0 l 253 722 l 79 722 z "},"j":{"ha":350,"x_min":0,"x_max":0,"o":"m 175 856 b 271 947 236 856 271 899 b 175 1039 271 997 236 1039 b 79 947 114 1039 79 997 b 175 856 79 899 114 856 z m 88 -215 l 263 -215 l 263 722 l 88 722 z "},"k":{"ha":929,"x_min":0,"x_max":0,"o":"m 908 0 l 576 382 l 865 722 l 663 722 l 354 350 l 261 231 l 257 231 l 260 351 l 260 986 l 86 986 l 86 0 l 251 0 l 475 264 l 703 0 z "},"ķ":{"ha":929,"x_min":0,"x_max":0,"o":"m 576 382 l 865 722 l 663 722 l 354 350 l 261 231 l 257 231 l 260 351 l 260 986 l 86 986 l 86 0 l 251 0 l 475 264 l 703 0 l 908 0 z m 265 -365 l 425 -365 l 547 -42 l 386 -42 z "},"l":{"ha":346,"x_min":0,"x_max":0,"o":"m 86 0 l 260 0 l 260 986 l 86 986 z "},"ĺ":{"ha":346,"x_min":0,"x_max":0,"o":"m 107 1065 l 272 1065 l 388 1294 l 222 1294 z m 86 0 l 260 0 l 260 986 l 86 986 z "},"ľ":{"ha":346,"x_min":0,"x_max":0,"o":"m 250 1294 l 172 1140 l 94 1294 l -67 1294 l 49 1065 l 297 1065 l 413 1294 z m 86 0 l 260 0 l 260 986 l 86 986 z "},"ļ":{"ha":349,"x_min":0,"x_max":0,"o":"m 89 0 l 263 0 l 263 986 l 89 986 z m -33 -365 l 128 -365 l 249 -42 l 89 -42 z "},"ł":{"ha":426,"x_min":0,"x_max":0,"o":"m 468 654 l 307 636 l 307 986 l 133 986 l 133 618 l -42 599 l -42 461 l 133 481 l 133 0 l 307 0 l 307 499 l 468 517 z "},"m":{"ha":1453,"x_min":0,"x_max":0,"o":"m 1069 743 b 785 578 918 743 831 674 b 519 743 743 682 656 743 b 244 574 372 743 292 671 l 260 617 l 254 722 l 86 722 l 86 0 l 260 0 l 260 379 b 456 590 260 508 324 590 b 639 379 589 590 639 506 l 639 0 l 813 0 l 813 379 b 1010 590 813 508 876 590 b 1192 383 1146 590 1192 506 l 1192 0 l 1367 0 l 1367 410 b 1069 743 1367 613 1278 743 z "},"n":{"ha":926,"x_min":0,"x_max":0,"o":"m 536 743 b 240 563 375 743 290 665 l 260 617 l 254 722 l 86 722 l 86 0 l 260 0 l 260 376 b 474 590 260 518 343 590 b 667 381 603 590 667 518 l 667 0 l 840 0 l 840 414 b 536 743 840 619 740 743 z "},"ń":{"ha":926,"x_min":0,"x_max":0,"o":"m 676 1044 l 511 1044 l 396 815 l 561 815 z m 536 743 b 240 563 375 743 290 665 l 260 617 l 254 722 l 86 722 l 86 0 l 260 0 l 260 376 b 474 590 260 518 343 590 b 667 381 603 590 667 518 l 667 0 l 840 0 l 840 414 b 536 743 840 619 740 743 z "},"ň":{"ha":926,"x_min":0,"x_max":0,"o":"m 339 815 l 588 815 l 703 1044 l 540 1044 l 463 890 l 385 1044 l 224 1044 z m 536 743 b 240 563 375 743 290 665 l 260 617 l 254 722 l 86 722 l 86 0 l 260 0 l 260 376 b 474 590 260 518 343 590 b 667 381 603 590 667 518 l 667 0 l 840 0 l 840 414 b 536 743 840 619 740 743 z "},"ņ":{"ha":926,"x_min":0,"x_max":0,"o":"m 536 743 b 240 563 375 743 290 665 l 260 617 l 254 722 l 86 722 l 86 0 l 260 0 l 260 376 b 474 590 260 518 343 590 b 667 381 603 590 667 518 l 667 0 l 840 0 l 840 414 b 536 743 840 619 740 743 z m 281 -365 l 442 -365 l 563 -42 l 403 -42 z "},"ŋ":{"ha":926,"x_min":0,"x_max":0,"o":"m 536 743 b 240 563 375 743 290 665 l 260 617 l 254 722 l 86 722 l 86 0 l 260 0 l 260 376 b 474 590 260 518 343 590 b 667 381 603 590 667 518 l 667 -215 l 840 -215 l 840 414 b 536 743 840 619 740 743 z "},"ñ":{"ha":926,"x_min":0,"x_max":0,"o":"m 594 915 b 743 871 635 915 693 906 l 743 1006 b 599 1049 700 1036 649 1049 b 331 986 485 1049 438 986 b 182 1031 289 986 232 996 l 182 896 b 326 853 225 865 276 853 b 594 915 440 853 488 915 z m 536 743 b 240 563 375 743 290 665 l 260 617 l 254 722 l 86 722 l 86 0 l 260 0 l 260 376 b 474 590 260 518 343 590 b 667 381 603 590 667 518 l 667 0 l 840 0 l 840 414 b 536 743 840 619 740 743 z "},"o":{"ha":894,"x_min":0,"x_max":0,"o":"m 447 -21 b 843 361 697 -21 843 149 b 447 743 843 574 697 743 b 51 361 197 743 51 574 b 447 -21 51 149 199 -21 z m 447 133 b 222 361 304 133 222 231 b 447 589 222 493 304 589 b 672 361 590 589 672 493 b 447 133 672 229 590 133 z "},"ó":{"ha":894,"x_min":0,"x_max":0,"o":"m 381 815 l 546 815 l 661 1044 l 496 1044 z m 447 -21 b 843 361 697 -21 843 149 b 447 743 843 574 697 743 b 51 361 197 743 51 574 b 447 -21 51 149 199 -21 z m 447 133 b 222 361 304 133 222 231 b 447 589 222 493 304 589 b 672 361 590 589 672 493 b 447 133 672 229 590 133 z "},"ǒ":{"ha":894,"x_min":0,"x_max":0,"o":"m 324 815 l 572 815 l 688 1044 l 525 1044 l 447 890 l 369 1044 l 208 1044 z m 447 743 b 51 361 197 743 51 574 b 447 -21 51 149 199 -21 b 843 361 697 -21 843 149 b 447 743 843 574 697 743 z m 447 133 b 222 361 304 133 222 231 b 447 589 222 493 304 589 b 672 361 590 589 672 493 b 447 133 672 229 590 133 z "},"ô":{"ha":894,"x_min":0,"x_max":0,"o":"m 447 969 l 525 815 l 688 815 l 572 1044 l 324 1044 l 208 815 l 369 815 z m 447 743 b 51 361 197 743 51 574 b 447 -21 51 149 199 -21 b 843 361 697 -21 843 149 b 447 743 843 574 697 743 z m 447 133 b 222 361 304 133 222 231 b 447 589 222 493 304 589 b 672 361 590 589 672 493 b 447 133 672 229 590 133 z "},"ö":{"ha":894,"x_min":0,"x_max":0,"o":"m 253 860 b 349 949 314 860 349 901 b 253 1038 349 996 314 1038 b 157 949 192 1038 157 996 b 253 860 157 901 192 860 z m 640 860 b 736 949 701 860 736 901 b 640 1038 736 996 701 1038 b 544 949 579 1038 544 996 b 640 860 544 901 579 860 z m 447 -21 b 843 361 697 -21 843 149 b 447 743 843 574 697 743 b 51 361 197 743 51 574 b 447 -21 51 149 199 -21 z m 447 133 b 222 361 304 133 222 231 b 447 589 222 493 304 589 b 672 361 590 589 672 493 b 447 133 672 229 590 133 z "},"ò":{"ha":894,"x_min":0,"x_max":0,"o":"m 531 815 l 415 1044 l 250 1044 l 365 815 z m 447 -21 b 843 361 697 -21 843 149 b 447 743 843 574 697 743 b 51 361 197 743 51 574 b 447 -21 51 149 199 -21 z m 447 133 b 222 361 304 133 222 231 b 447 589 222 493 304 589 b 672 361 590 589 672 493 b 447 133 672 229 590 133 z "},"ő":{"ha":894,"x_min":0,"x_max":0,"o":"m 242 788 l 407 788 l 522 1017 l 357 1017 z m 471 788 l 636 788 l 751 1017 l 586 1017 z m 447 -21 b 843 361 697 -21 843 149 b 447 743 843 574 697 743 b 51 361 197 743 51 574 b 447 -21 51 149 199 -21 z m 447 133 b 222 361 304 133 222 231 b 447 589 222 493 304 589 b 672 361 590 589 672 493 b 447 133 672 229 590 133 z "},"ō":{"ha":894,"x_min":0,"x_max":0,"o":"m 193 892 l 703 892 l 703 1044 l 193 1044 z m 447 -21 b 843 361 697 -21 843 149 b 447 743 843 574 697 743 b 51 361 197 743 51 574 b 447 -21 51 149 199 -21 z m 447 133 b 222 361 304 133 222 231 b 447 589 222 493 304 589 b 672 361 590 589 672 493 b 447 133 672 229 590 133 z "},"ø":{"ha":900,"x_min":0,"x_max":0,"o":"m 764 604 l 808 649 l 738 719 l 690 672 b 447 743 628 717 546 743 b 51 361 197 743 51 574 b 133 115 51 267 81 182 l 92 74 l 164 3 l 208 47 b 447 -21 271 4 351 -21 b 843 361 697 -21 843 149 b 764 604 843 454 815 538 z m 222 361 b 447 589 222 493 304 589 b 574 556 497 589 540 578 l 254 236 b 222 361 233 271 222 314 z m 447 133 b 325 164 399 133 358 144 l 643 483 b 672 361 663 449 672 407 b 447 133 672 229 590 133 z "},"õ":{"ha":894,"x_min":0,"x_max":0,"o":"m 311 853 b 579 915 425 853 472 915 b 728 871 619 915 678 906 l 728 1006 b 583 1049 685 1036 633 1049 b 315 986 469 1049 422 986 b 167 1031 274 986 217 996 l 167 896 b 311 853 210 865 261 853 z m 447 -21 b 843 361 697 -21 843 149 b 447 743 843 574 697 743 b 51 361 197 743 51 574 b 447 -21 51 149 199 -21 z m 447 133 b 222 361 304 133 222 231 b 447 589 222 493 304 589 b 672 361 590 589 672 493 b 447 133 672 229 590 133 z "},"œ":{"ha":1504,"x_min":0,"x_max":0,"o":"m 849 303 l 1451 303 b 1068 743 1471 583 1315 743 b 757 611 928 743 824 693 b 447 743 689 693 583 743 b 51 361 197 743 51 574 b 447 -21 51 149 199 -21 b 757 110 583 -21 689 29 b 1069 -21 824 29 929 -21 b 1428 206 1263 -21 1390 76 l 1261 206 b 1081 114 1231 140 1164 114 b 849 303 940 114 867 186 z m 1068 613 b 1285 411 1189 613 1264 553 l 847 411 b 1068 613 861 539 933 613 z m 447 133 b 222 361 304 133 222 231 b 447 589 222 493 304 589 b 672 361 590 589 672 493 b 447 133 672 229 590 133 z "},"p":{"ha":939,"x_min":0,"x_max":0,"o":"m 525 743 b 229 561 396 743 297 685 l 260 629 l 257 722 l 86 722 l 86 -200 l 260 -200 l 260 114 b 525 -21 317 24 413 -21 b 888 361 746 -21 888 146 b 525 743 888 576 746 743 z m 488 132 b 257 361 346 132 257 228 b 488 590 257 494 346 590 b 717 361 631 590 717 494 b 488 132 717 228 631 132 z "},"þ":{"ha":939,"x_min":0,"x_max":0,"o":"m 525 743 b 229 561 396 743 297 685 l 260 629 l 260 986 l 86 986 l 86 -200 l 260 -200 l 260 114 b 525 -21 317 24 413 -21 b 888 361 746 -21 888 146 b 525 743 888 576 746 743 z m 488 132 b 257 361 346 132 257 228 b 488 590 257 494 346 590 b 717 361 631 590 717 494 b 488 132 717 228 631 132 z "},"q":{"ha":939,"x_min":0,"x_max":0,"o":"m 682 722 l 679 629 l 710 561 b 414 743 642 685 543 743 b 51 361 194 743 51 576 b 414 -21 51 146 194 -21 b 679 113 526 -21 621 24 l 679 -200 l 853 -200 l 853 722 z m 451 132 b 222 361 308 132 222 228 b 451 590 222 494 308 590 b 682 361 593 590 682 494 b 451 132 682 228 593 132 z "},"r":{"ha":833,"x_min":0,"x_max":0,"o":"m 501 743 b 247 583 364 743 296 676 l 260 617 l 254 722 l 86 722 l 86 0 l 260 0 l 260 389 b 446 590 260 526 332 590 b 606 425 557 590 606 526 l 606 410 l 768 410 l 768 458 b 501 743 768 628 681 743 z "},"ŕ":{"ha":833,"x_min":0,"x_max":0,"o":"m 624 1044 l 458 1044 l 343 815 l 508 815 z m 501 743 b 247 583 364 743 296 676 l 260 617 l 254 722 l 86 722 l 86 0 l 260 0 l 260 389 b 446 590 260 526 332 590 b 606 425 557 590 606 526 l 606 410 l 768 410 l 768 458 b 501 743 768 628 681 743 z "},"ř":{"ha":833,"x_min":0,"x_max":0,"o":"m 286 815 l 535 815 l 650 1044 l 488 1044 l 410 890 l 332 1044 l 171 1044 z m 501 743 b 247 583 364 743 296 676 l 260 617 l 254 722 l 86 722 l 86 0 l 260 0 l 260 389 b 446 590 260 526 332 590 b 606 425 557 590 606 526 l 606 410 l 768 410 l 768 458 b 501 743 768 628 681 743 z "},"ŗ":{"ha":833,"x_min":0,"x_max":0,"o":"m 501 743 b 247 583 364 743 296 676 l 260 617 l 254 722 l 86 722 l 86 0 l 260 0 l 260 389 b 446 590 260 526 332 590 b 606 425 557 590 606 526 l 606 410 l 768 410 l 768 458 b 501 743 768 628 681 743 z m -39 -365 l 122 -365 l 244 -42 l 83 -42 z "},"s":{"ha":800,"x_min":0,"x_max":0,"o":"m 393 -21 b 749 217 632 -21 749 56 b 517 417 747 346 676 401 l 347 433 b 228 521 260 442 228 468 b 394 614 228 585 282 614 b 571 513 517 614 560 579 l 728 513 b 401 743 718 708 556 743 b 58 517 167 743 58 664 b 293 307 58 389 135 322 l 463 292 b 578 206 543 283 578 263 b 399 110 578 135 518 110 b 210 210 279 110 222 138 l 51 210 b 393 -21 63 15 228 -21 z "},"ś":{"ha":800,"x_min":0,"x_max":0,"o":"m 336 815 l 501 815 l 617 1044 l 451 1044 z m 393 -21 b 749 217 632 -21 749 56 b 517 417 747 346 676 401 l 347 433 b 228 521 260 442 228 468 b 394 614 228 585 282 614 b 571 513 517 614 560 579 l 728 513 b 401 743 718 708 556 743 b 58 517 167 743 58 664 b 293 307 58 389 135 322 l 463 292 b 578 206 543 283 578 263 b 399 110 578 135 518 110 b 210 210 279 110 222 138 l 51 210 b 393 -21 63 15 228 -21 z "},"š":{"ha":800,"x_min":0,"x_max":0,"o":"m 279 815 l 528 815 l 643 1044 l 481 1044 l 403 890 l 325 1044 l 164 1044 z m 517 417 l 347 433 b 228 521 260 442 228 468 b 394 614 228 585 282 614 b 571 513 517 614 560 579 l 728 513 b 401 743 718 708 556 743 b 58 517 167 743 58 664 b 293 307 58 389 135 322 l 463 292 b 578 206 543 283 578 263 b 399 110 578 135 518 110 b 210 210 279 110 222 138 l 51 210 b 393 -21 63 15 228 -21 b 749 217 632 -21 749 56 b 517 417 747 346 676 401 z "},"ş":{"ha":800,"x_min":0,"x_max":0,"o":"m 749 217 b 517 417 747 346 676 401 l 347 433 b 228 521 260 442 228 468 b 394 614 228 585 282 614 b 571 513 517 614 560 579 l 728 513 b 401 743 718 708 556 743 b 58 517 167 743 58 664 b 293 307 58 389 135 322 l 463 292 b 578 206 543 283 578 263 b 399 110 578 135 518 110 b 210 210 279 110 222 138 l 51 210 b 350 -19 61 32 200 -14 l 282 -143 l 408 -143 b 464 -196 444 -143 464 -167 b 407 -249 464 -225 444 -249 b 360 -231 385 -249 371 -240 l 311 -297 b 418 -337 332 -321 371 -337 b 564 -196 506 -337 564 -282 b 431 -61 564 -115 508 -61 l 415 -61 l 440 -19 b 749 217 647 -10 749 67 z "},"ș":{"ha":800,"x_min":0,"x_max":0,"o":"m 393 -21 b 749 217 632 -21 749 56 b 517 417 747 346 676 401 l 347 433 b 228 521 260 442 228 468 b 394 614 228 585 282 614 b 571 513 517 614 560 579 l 728 513 b 401 743 718 708 556 743 b 58 517 167 743 58 664 b 293 307 58 389 135 322 l 463 292 b 578 206 543 283 578 263 b 399 110 578 135 518 110 b 210 210 279 110 222 138 l 51 210 b 393 -21 63 15 228 -21 z m 203 -365 l 364 -365 l 485 -42 l 325 -42 z "},"ß":{"ha":913,"x_min":0,"x_max":0,"o":"m 572 381 l 790 572 l 790 722 l 260 722 l 260 769 b 368 878 260 844 290 878 l 443 878 l 443 1021 l 340 1021 b 86 769 151 1021 86 922 l 86 0 l 260 0 l 260 579 l 606 579 l 369 372 l 369 251 l 479 251 b 683 90 611 251 683 204 b 467 -75 683 -25 611 -75 l 346 -75 l 346 -221 l 490 -221 b 861 79 753 -221 861 -94 b 572 381 861 256 747 365 z "},"t":{"ha":632,"x_min":0,"x_max":0,"o":"m 579 574 l 579 722 l 379 722 l 379 972 l 206 972 l 206 722 l 47 722 l 47 574 l 206 574 l 206 239 b 463 -7 206 85 272 -7 l 579 -7 l 579 149 l 494 149 b 379 261 413 149 379 182 l 379 574 z "},"ŧ":{"ha":632,"x_min":0,"x_max":0,"o":"m 579 574 l 579 722 l 379 722 l 379 972 l 206 972 l 206 722 l 47 722 l 47 574 l 206 574 l 206 454 l 47 454 l 47 331 l 206 331 l 206 239 b 463 -7 206 85 272 -7 l 579 -7 l 579 149 l 494 149 b 379 261 413 149 379 182 l 379 331 l 579 331 l 579 454 l 379 454 l 379 574 z "},"ť":{"ha":632,"x_min":0,"x_max":0,"o":"m 169 1065 l 418 1065 l 533 1294 l 371 1294 l 293 1140 l 215 1294 l 54 1294 z m 579 574 l 579 722 l 379 722 l 379 972 l 206 972 l 206 722 l 47 722 l 47 574 l 206 574 l 206 239 b 463 -7 206 85 272 -7 l 579 -7 l 579 149 l 494 149 b 379 261 413 149 379 182 l 379 574 z "},"ţ":{"ha":632,"x_min":0,"x_max":0,"o":"m 579 574 l 579 722 l 379 722 l 379 972 l 206 972 l 206 722 l 47 722 l 47 574 l 206 574 l 206 239 b 318 19 206 133 238 57 l 311 19 l 222 -143 l 349 -143 b 404 -196 385 -143 404 -167 b 347 -249 404 -225 385 -249 b 300 -231 325 -249 311 -240 l 251 -297 b 358 -337 272 -321 311 -337 b 504 -196 446 -337 504 -282 b 371 -61 504 -115 449 -61 l 356 -61 l 390 -1 b 463 -7 413 -6 436 -7 l 579 -7 l 579 149 l 494 149 b 379 261 413 149 379 182 l 379 574 z "},"ț":{"ha":632,"x_min":0,"x_max":0,"o":"m 579 574 l 579 722 l 379 722 l 379 972 l 206 972 l 206 722 l 47 722 l 47 574 l 206 574 l 206 239 b 463 -7 206 85 272 -7 l 579 -7 l 579 149 l 494 149 b 379 261 413 149 379 182 l 379 574 z m 164 -365 l 325 -365 l 446 -42 l 286 -42 z "},"u":{"ha":926,"x_min":0,"x_max":0,"o":"m 667 722 l 667 346 b 453 132 667 206 583 132 b 260 342 324 132 260 204 l 260 722 l 86 722 l 86 308 b 390 -21 86 103 186 -21 b 685 154 550 -21 635 54 l 667 106 l 674 0 l 840 0 l 840 722 z "},"ú":{"ha":926,"x_min":0,"x_max":0,"o":"m 679 1044 l 514 1044 l 399 815 l 564 815 z m 667 722 l 667 346 b 453 132 667 206 583 132 b 260 342 324 132 260 204 l 260 722 l 86 722 l 86 308 b 390 -21 86 103 186 -21 b 685 154 550 -21 635 54 l 667 106 l 674 0 l 840 0 l 840 722 z "},"ŭ":{"ha":926,"x_min":0,"x_max":0,"o":"m 465 783 b 729 1044 657 783 740 885 l 578 1044 b 465 910 588 956 546 910 b 353 1044 385 910 343 956 l 201 1044 b 465 783 190 885 274 783 z m 667 722 l 667 346 b 453 132 667 206 583 132 b 260 342 324 132 260 204 l 260 722 l 86 722 l 86 308 b 390 -21 86 103 186 -21 b 685 154 550 -21 635 54 l 667 106 l 674 0 l 840 0 l 840 722 z "},"ǔ":{"ha":926,"x_min":0,"x_max":0,"o":"m 342 815 l 590 815 l 706 1044 l 543 1044 l 465 890 l 388 1044 l 226 1044 z m 667 722 l 667 346 b 453 132 667 206 583 132 b 260 342 324 132 260 204 l 260 722 l 86 722 l 86 308 b 390 -21 86 103 186 -21 b 685 154 550 -21 635 54 l 667 106 l 674 0 l 840 0 l 840 722 z "},"û":{"ha":926,"x_min":0,"x_max":0,"o":"m 465 969 l 543 815 l 706 815 l 590 1044 l 342 1044 l 226 815 l 388 815 z m 667 722 l 667 346 b 453 132 667 206 583 132 b 260 342 324 132 260 204 l 260 722 l 86 722 l 86 308 b 390 -21 86 103 186 -21 b 685 154 550 -21 635 54 l 667 106 l 674 0 l 840 0 l 840 722 z "},"ü":{"ha":926,"x_min":0,"x_max":0,"o":"m 271 860 b 367 949 332 860 367 901 b 271 1038 367 996 332 1038 b 175 949 210 1038 175 996 b 271 860 175 901 210 860 z m 658 860 b 754 949 719 860 754 901 b 658 1038 754 996 719 1038 b 563 949 597 1038 563 996 b 658 860 563 901 597 860 z m 667 722 l 667 346 b 453 132 667 206 583 132 b 260 342 324 132 260 204 l 260 722 l 86 722 l 86 308 b 390 -21 86 103 186 -21 b 685 154 550 -21 635 54 l 667 106 l 674 0 l 840 0 l 840 722 z "},"ù":{"ha":926,"x_min":0,"x_max":0,"o":"m 549 815 l 433 1044 l 268 1044 l 383 815 z m 667 722 l 667 346 b 453 132 667 206 583 132 b 260 342 324 132 260 204 l 260 722 l 86 722 l 86 308 b 390 -21 86 103 186 -21 b 685 154 550 -21 635 54 l 667 106 l 674 0 l 840 0 l 840 722 z "},"ű":{"ha":926,"x_min":0,"x_max":0,"o":"m 539 1017 l 374 1017 l 258 788 l 424 788 z m 653 788 l 768 1017 l 603 1017 l 488 788 z m 667 722 l 667 346 b 453 132 667 206 583 132 b 260 342 324 132 260 204 l 260 722 l 86 722 l 86 308 b 390 -21 86 103 186 -21 b 685 154 550 -21 635 54 l 667 106 l 674 0 l 840 0 l 840 722 z "},"ū":{"ha":926,"x_min":0,"x_max":0,"o":"m 719 1044 l 210 1044 l 210 892 l 719 892 z m 667 722 l 667 346 b 453 132 667 206 583 132 b 260 342 324 132 260 204 l 260 722 l 86 722 l 86 308 b 390 -21 86 103 186 -21 b 685 154 550 -21 635 54 l 667 106 l 674 0 l 840 0 l 840 722 z "},"ų":{"ha":926,"x_min":0,"x_max":0,"o":"m 667 722 l 667 346 b 453 132 667 206 583 132 b 260 342 324 132 260 204 l 260 722 l 86 722 l 86 308 b 390 -21 86 103 186 -21 b 685 154 550 -21 635 54 l 667 106 l 672 11 b 490 -194 585 -19 490 -81 b 674 -347 490 -282 547 -347 b 760 -333 704 -347 735 -343 l 760 -217 l 742 -218 b 633 -140 681 -222 633 -197 b 800 0 633 -86 674 -29 l 840 0 l 840 722 z "},"ů":{"ha":926,"x_min":0,"x_max":0,"o":"m 465 801 b 601 933 551 801 601 863 b 465 1067 601 1006 551 1067 b 329 933 379 1067 329 1006 b 465 801 329 863 379 801 z m 465 985 b 517 933 499 985 517 963 b 465 883 517 906 499 883 b 414 933 432 883 414 906 b 465 985 414 963 432 985 z m 667 722 l 667 346 b 453 132 667 206 583 132 b 260 342 324 132 260 204 l 260 722 l 86 722 l 86 308 b 390 -21 86 103 186 -21 b 685 154 550 -21 635 54 l 667 106 l 674 0 l 840 0 l 840 722 z "},"v":{"ha":867,"x_min":0,"x_max":0,"o":"m 342 0 l 525 0 l 843 722 l 663 722 l 436 194 l 431 194 l 204 722 l 24 722 z "},"w":{"ha":1344,"x_min":0,"x_max":0,"o":"m 271 0 l 463 0 l 672 536 l 882 0 l 1074 0 l 1321 722 l 1142 722 l 971 186 l 763 722 l 581 722 l 374 186 l 203 722 l 24 722 z "},"ẃ":{"ha":1344,"x_min":0,"x_max":0,"o":"m 606 815 l 771 815 l 886 1044 l 721 1044 z m 271 0 l 463 0 l 672 536 l 882 0 l 1074 0 l 1321 722 l 1142 722 l 971 186 l 763 722 l 581 722 l 374 186 l 203 722 l 24 722 z "},"ŵ":{"ha":1344,"x_min":0,"x_max":0,"o":"m 672 969 l 750 815 l 913 815 l 797 1044 l 549 1044 l 433 815 l 594 815 z m 1142 722 l 971 186 l 763 722 l 581 722 l 374 186 l 203 722 l 24 722 l 271 0 l 463 0 l 672 536 l 882 0 l 1074 0 l 1321 722 z "},"ẅ":{"ha":1344,"x_min":0,"x_max":0,"o":"m 478 860 b 574 949 539 860 574 901 b 478 1038 574 996 539 1038 b 382 949 417 1038 382 996 b 478 860 382 901 417 860 z m 865 860 b 961 949 926 860 961 901 b 865 1038 961 996 926 1038 b 769 949 804 1038 769 996 b 865 860 769 901 804 860 z m 271 0 l 463 0 l 672 536 l 882 0 l 1074 0 l 1321 722 l 1142 722 l 971 186 l 763 722 l 581 722 l 374 186 l 203 722 l 24 722 z "},"ẁ":{"ha":1344,"x_min":0,"x_max":0,"o":"m 756 815 l 640 1044 l 475 1044 l 590 815 z m 271 0 l 463 0 l 672 536 l 882 0 l 1074 0 l 1321 722 l 1142 722 l 971 186 l 763 722 l 581 722 l 374 186 l 203 722 l 24 722 z "},"x":{"ha":858,"x_min":0,"x_max":0,"o":"m 31 0 l 235 0 l 429 243 l 624 0 l 828 0 l 529 364 l 822 722 l 619 722 l 429 486 l 239 722 l 36 722 l 331 364 z "},"y":{"ha":872,"x_min":0,"x_max":0,"o":"m 258 -200 l 438 -200 l 849 722 l 667 722 l 439 194 l 433 194 l 206 722 l 24 722 l 311 81 l 350 1 z "},"ý":{"ha":872,"x_min":0,"x_max":0,"o":"m 369 815 l 535 815 l 650 1044 l 485 1044 z m 258 -200 l 438 -200 l 849 722 l 667 722 l 439 194 l 433 194 l 206 722 l 24 722 l 311 81 l 350 1 z "},"ŷ":{"ha":872,"x_min":0,"x_max":0,"o":"m 436 969 l 514 815 l 676 815 l 561 1044 l 313 1044 l 197 815 l 358 815 z m 667 722 l 439 194 l 433 194 l 206 722 l 24 722 l 311 81 l 350 1 l 258 -200 l 438 -200 l 849 722 z "},"ÿ":{"ha":872,"x_min":0,"x_max":0,"o":"m 242 860 b 338 949 303 860 338 901 b 242 1038 338 996 303 1038 b 146 949 181 1038 146 996 b 242 860 146 901 181 860 z m 629 860 b 725 949 690 860 725 901 b 629 1038 725 996 690 1038 b 533 949 568 1038 533 996 b 629 860 533 901 568 860 z m 258 -200 l 438 -200 l 849 722 l 667 722 l 439 194 l 433 194 l 206 722 l 24 722 l 311 81 l 350 1 z "},"ỳ":{"ha":872,"x_min":0,"x_max":0,"o":"m 519 815 l 404 1044 l 239 1044 l 354 815 z m 258 -200 l 438 -200 l 849 722 l 667 722 l 439 194 l 433 194 l 206 722 l 24 722 l 311 81 l 350 1 z "},"z":{"ha":796,"x_min":0,"x_max":0,"o":"m 61 0 l 742 0 l 742 149 l 278 149 l 735 574 l 735 722 l 72 722 l 72 574 l 517 574 l 61 149 z "},"ź":{"ha":796,"x_min":0,"x_max":0,"o":"m 331 815 l 496 815 l 611 1044 l 446 1044 z m 61 0 l 742 0 l 742 149 l 278 149 l 735 574 l 735 722 l 72 722 l 72 574 l 517 574 l 61 149 z "},"ž":{"ha":796,"x_min":0,"x_max":0,"o":"m 274 815 l 522 815 l 638 1044 l 475 1044 l 397 890 l 319 1044 l 158 1044 z m 278 149 l 735 574 l 735 722 l 72 722 l 72 574 l 517 574 l 61 149 l 61 0 l 742 0 l 742 149 z "},"ż":{"ha":796,"x_min":0,"x_max":0,"o":"m 397 860 b 493 949 458 860 493 901 b 397 1038 493 996 458 1038 b 301 949 336 1038 301 996 b 397 860 301 901 336 860 z m 61 0 l 742 0 l 742 149 l 278 149 l 735 574 l 735 722 l 72 722 l 72 574 l 517 574 l 61 149 z "},"⁄":{"ha":733,"x_min":0,"x_max":0,"o":"m 38 0 l 222 0 l 696 972 l 511 972 z "},".":{"ha":286,"x_min":0,"x_max":0,"o":"m 143 -7 b 242 89 206 -7 242 38 b 143 186 242 142 206 186 b 44 89 81 186 44 142 b 143 -7 44 38 81 -7 z "},",":{"ha":343,"x_min":0,"x_max":0,"o":"m 31 -146 l 192 -146 l 313 178 l 153 178 z "},":":{"ha":286,"x_min":0,"x_max":0,"o":"m 143 550 b 242 646 206 550 242 594 b 143 743 242 699 206 743 b 44 646 81 743 44 699 b 143 550 44 594 81 550 z m 143 -7 b 242 89 206 -7 242 38 b 143 186 242 142 206 186 b 44 89 81 186 44 142 b 143 -7 44 38 81 -7 z "},";":{"ha":368,"x_min":0,"x_max":0,"o":"m 239 550 b 338 646 301 550 338 594 b 239 743 338 699 301 743 b 140 646 176 743 140 699 b 239 550 140 594 176 550 z m 31 -146 l 192 -146 l 313 178 l 153 178 z "},"…":{"ha":840,"x_min":0,"x_max":0,"o":"m 143 -7 b 242 89 206 -7 242 38 b 143 186 242 142 206 186 b 44 89 81 186 44 142 b 143 -7 44 38 81 -7 z m 419 -7 b 518 89 482 -7 518 38 b 419 186 518 142 482 186 b 321 89 358 186 321 142 b 419 -7 321 38 358 -7 z m 697 -7 b 796 89 758 -7 796 38 b 697 186 796 142 758 186 b 597 89 635 186 597 142 b 697 -7 597 38 635 -7 z "},"!":{"ha":383,"x_min":0,"x_max":0,"o":"m 107 260 l 275 260 l 282 972 l 101 972 z m 192 -7 b 290 89 254 -7 290 38 b 192 186 290 142 254 186 b 93 89 129 186 93 142 b 192 -7 93 38 129 -7 z "},"¡":{"ha":383,"x_min":0,"x_max":0,"o":"m 192 743 b 93 647 129 743 93 699 b 192 550 93 594 129 550 b 290 647 254 550 290 594 b 192 743 290 699 254 743 z m 107 476 l 101 -236 l 282 -236 l 275 476 z "},"?":{"ha":919,"x_min":0,"x_max":0,"o":"m 351 254 l 528 254 b 631 410 526 324 535 369 l 681 432 b 861 679 825 494 861 569 b 468 993 861 868 751 993 b 58 618 186 993 47 869 l 232 618 b 469 836 222 775 311 836 b 682 678 624 836 682 776 b 557 525 682 596 642 558 l 517 510 b 351 254 361 450 344 375 z m 439 -7 b 538 89 501 -7 538 38 b 439 186 538 142 501 186 b 340 89 376 186 340 142 b 439 -7 340 38 376 -7 z "},"¿":{"ha":919,"x_min":0,"x_max":0,"o":"m 481 743 b 382 647 418 743 382 699 b 481 550 382 594 418 550 b 579 647 543 550 579 594 b 481 743 579 699 543 743 z m 568 482 l 392 482 b 289 326 393 413 385 367 l 239 304 b 58 57 94 242 58 167 b 451 -257 58 -132 168 -257 b 861 118 733 -257 872 -133 l 688 118 b 450 -100 697 -39 610 -100 b 238 58 296 -100 238 -40 b 363 211 238 140 279 178 l 403 226 b 568 482 558 286 575 361 z "},"·":{"ha":336,"x_min":0,"x_max":0,"o":"m 168 299 b 267 394 231 299 267 342 b 168 492 267 446 231 492 b 69 394 106 492 69 446 b 168 299 69 342 106 299 z "},"•":{"ha":508,"x_min":0,"x_max":0,"o":"m 254 279 b 369 390 328 279 369 329 b 254 503 369 451 328 503 b 139 390 181 503 139 451 b 254 279 139 329 181 279 z "},"*":{"ha":844,"x_min":0,"x_max":0,"o":"m 275 282 l 422 482 l 571 282 l 706 381 l 557 579 l 793 656 l 742 814 l 508 736 l 510 983 l 335 983 l 336 736 l 103 814 l 51 656 l 289 579 l 139 381 z "},"#":{"ha":1096,"x_min":0,"x_max":0,"o":"m 1013 590 l 1058 735 l 907 735 l 983 972 l 810 972 l 733 735 l 522 735 l 599 972 l 425 972 l 349 735 l 196 735 l 150 590 l 301 590 l 235 385 l 86 385 l 38 240 l 189 240 l 111 0 l 285 0 l 363 240 l 574 240 l 496 0 l 669 0 l 747 240 l 900 240 l 949 385 l 793 385 l 860 590 z m 619 385 l 408 385 l 475 590 l 686 590 z "},"/":{"ha":676,"x_min":0,"x_max":0,"o":"m 38 0 l 211 0 l 639 972 l 465 972 z "},"\\":{"ha":676,"x_min":0,"x_max":0,"o":"m 639 0 l 211 972 l 38 972 l 465 0 z "},"(":{"ha":586,"x_min":0,"x_max":0,"o":"m 460 -192 l 525 -192 l 525 -32 l 475 -32 b 249 300 281 -32 249 79 l 249 667 b 475 1007 249 896 281 1007 l 525 1007 l 525 1167 l 460 1167 b 69 676 143 1167 69 972 l 69 290 b 460 -192 69 3 143 -192 z "},")":{"ha":610,"x_min":0,"x_max":0,"o":"m 125 -192 b 517 290 442 -192 517 3 l 517 676 b 125 1167 517 972 442 1167 l 61 1167 l 61 1007 l 111 1007 b 338 667 304 1007 338 896 l 338 300 b 111 -32 338 79 304 -32 l 61 -32 l 61 -192 z "},"{":{"ha":676,"x_min":0,"x_max":0,"o":"m 631 947 l 631 1110 l 176 1110 l 176 576 l 47 576 l 47 404 l 176 404 l 176 -129 l 631 -129 l 631 33 l 356 33 l 356 947 z "},"}":{"ha":676,"x_min":0,"x_max":0,"o":"m 631 576 l 501 576 l 501 1110 l 47 1110 l 47 947 l 321 947 l 321 33 l 47 33 l 47 -129 l 501 -129 l 501 404 l 631 404 z "},"[":{"ha":594,"x_min":0,"x_max":0,"o":"m 93 -129 l 547 -129 l 547 33 l 272 33 l 272 947 l 547 947 l 547 1110 l 93 1110 z "},"]":{"ha":594,"x_min":0,"x_max":0,"o":"m 501 -129 l 501 1110 l 47 1110 l 47 947 l 321 947 l 321 33 l 47 33 l 47 -129 z "},"-":{"ha":543,"x_min":0,"x_max":0,"o":"m 44 285 l 499 285 l 499 438 l 44 438 z "},"–":{"ha":958,"x_min":0,"x_max":0,"o":"m 44 285 l 915 285 l 915 438 l 44 438 z "},"—":{"ha":1256,"x_min":0,"x_max":0,"o":"m 44 285 l 1211 285 l 1211 438 l 44 438 z "},"_":{"ha":599,"x_min":0,"x_max":0,"o":"m 44 -153 l 554 -153 l 554 0 l 44 0 z "},"‚":{"ha":267,"x_min":0,"x_max":0,"o":"m 122 -106 b 236 67 186 -74 236 -7 l 236 76 b 131 186 236 135 197 186 b 31 89 71 186 31 143 b 124 -6 31 38 67 -3 z "},"„":{"ha":535,"x_min":0,"x_max":0,"o":"m 122 -106 b 236 67 186 -74 236 -7 l 236 76 b 131 186 236 135 197 186 b 31 89 71 186 31 143 b 124 -6 31 38 67 -3 z m 390 -106 b 504 67 454 -74 504 -7 l 504 76 b 399 186 504 135 465 186 b 299 89 339 186 299 143 b 392 -6 299 38 335 -3 z "},"“":{"ha":576,"x_min":0,"x_max":0,"o":"m 172 983 b 58 811 110 951 58 885 l 58 803 b 164 692 58 744 97 692 b 264 789 224 692 264 735 b 171 885 264 840 228 881 z m 440 983 b 326 811 378 951 326 885 l 326 803 b 432 692 326 744 365 692 b 532 789 492 692 532 735 b 439 885 532 840 496 881 z "},"”":{"ha":576,"x_min":0,"x_max":0,"o":"m 136 692 b 250 864 200 724 250 790 l 250 874 b 144 983 250 932 211 983 b 44 886 85 983 44 940 b 138 792 44 835 81 794 z m 404 692 b 518 864 468 724 518 790 l 518 874 b 413 983 518 932 479 983 b 313 886 353 983 313 940 b 406 792 313 835 349 794 z "},"‘":{"ha":308,"x_min":0,"x_max":0,"o":"m 172 983 b 58 811 110 951 58 885 l 58 803 b 164 692 58 744 97 692 b 264 789 224 692 264 735 b 171 885 264 840 228 881 z "},"’":{"ha":308,"x_min":0,"x_max":0,"o":"m 136 692 b 250 864 200 724 250 790 l 250 874 b 144 983 250 932 211 983 b 44 886 85 983 44 940 b 138 792 44 835 81 794 z "},"«":{"ha":992,"x_min":0,"x_max":0,"o":"m 415 8 l 500 129 l 193 375 l 500 621 l 415 742 l 42 446 l 42 304 z m 867 8 l 950 129 l 643 375 l 950 621 l 867 742 l 492 446 l 492 304 z "},"»":{"ha":992,"x_min":0,"x_max":0,"o":"m 126 8 l 500 304 l 500 446 l 126 742 l 42 621 l 349 375 l 42 129 z m 576 8 l 950 304 l 950 446 l 576 742 l 492 621 l 799 375 l 492 129 z "},"‹":{"ha":542,"x_min":0,"x_max":0,"o":"m 415 8 l 500 129 l 193 375 l 500 621 l 415 742 l 42 446 l 42 304 z "},"›":{"ha":542,"x_min":0,"x_max":0,"o":"m 126 8 l 500 304 l 500 446 l 126 742 l 42 621 l 349 375 l 42 129 z "},"\"":{"ha":478,"x_min":0,"x_max":0,"o":"m 40 592 l 190 592 l 200 972 l 31 972 z m 288 592 l 438 592 l 447 972 l 278 972 z "},"'":{"ha":231,"x_min":0,"x_max":0,"o":"m 40 592 l 190 592 l 200 972 l 31 972 z "},"¢":{"ha":868,"x_min":0,"x_max":0,"o":"m 449 253 b 222 481 304 253 222 349 b 449 708 222 611 304 708 b 647 572 550 708 622 661 l 817 572 b 615 833 799 694 729 789 l 650 961 l 510 999 l 472 863 l 449 863 b 51 481 189 863 53 690 b 275 129 50 322 128 188 l 240 0 l 382 -37 l 418 100 b 449 99 428 99 438 99 b 817 389 661 99 792 215 l 647 389 b 449 253 622 299 550 253 z "},"¤":{"ha":932,"x_min":0,"x_max":0,"o":"m 844 360 b 794 551 844 429 826 496 l 881 638 l 757 758 l 671 674 b 465 725 614 706 544 725 b 261 674 386 725 318 707 l 175 758 l 51 638 l 138 551 b 86 360 104 496 86 429 b 138 171 86 290 104 226 l 51 85 l 175 -36 l 261 49 b 465 -3 318 15 386 -3 b 671 49 544 -3 614 17 l 757 -36 l 881 85 l 794 171 b 844 360 826 226 844 292 z m 253 360 b 465 574 253 481 332 574 b 678 360 600 574 678 481 b 465 149 678 243 600 149 b 253 360 332 149 253 243 z "},"$":{"ha":793,"x_min":0,"x_max":0,"o":"m 735 336 b 510 538 733 465 665 522 l 344 553 b 229 640 261 561 229 588 b 392 735 229 706 282 735 b 563 632 510 735 551 699 l 715 632 b 567 840 710 751 647 811 l 600 961 l 460 999 l 422 864 l 397 864 b 65 638 171 864 65 785 b 293 428 65 508 139 443 l 457 411 b 569 326 536 404 569 383 b 396 231 569 256 511 231 b 211 329 279 231 224 257 l 58 329 b 222 121 65 207 133 147 l 190 0 l 331 -37 l 368 100 l 390 100 b 735 336 622 100 736 176 z "},"€":{"ha":1201,"x_min":0,"x_max":0,"o":"m 754 638 l 344 638 b 657 829 392 753 497 829 b 963 621 806 829 914 772 l 1136 621 b 657 993 1092 861 915 993 b 156 638 389 993 213 844 l 58 638 l 58 511 l 754 513 z m 657 143 b 346 335 497 143 392 221 l 754 336 l 754 463 l 58 461 l 58 335 l 156 335 b 657 -21 213 128 389 -21 b 1136 351 915 -21 1092 111 l 963 351 b 657 143 914 200 806 143 z "},"£":{"ha":921,"x_min":0,"x_max":0,"o":"m 863 618 b 476 993 874 869 733 993 b 96 697 222 993 96 872 b 164 451 96 607 129 526 l 86 446 l 86 317 l 222 317 b 238 233 232 289 238 261 b 131 193 238 168 203 147 l 58 64 b 263 -1 128 15 192 -1 b 589 49 383 -1 444 49 b 854 0 679 49 769 31 l 854 163 b 604 208 779 189 696 208 b 322 147 524 208 432 193 b 388 268 364 167 388 193 b 385 317 388 285 386 301 l 779 317 l 779 460 l 339 460 b 274 663 308 528 274 589 b 478 829 274 774 354 829 b 686 618 608 829 696 768 z "},"¥":{"ha":1117,"x_min":0,"x_max":0,"o":"m 1086 972 l 896 972 l 563 413 l 553 413 l 219 972 l 31 972 l 369 406 l 114 406 l 114 275 l 1001 275 l 1001 406 l 747 406 z m 114 94 l 469 94 l 469 0 l 649 0 l 649 94 l 1001 94 l 1001 225 l 114 225 z "},"+":{"ha":906,"x_min":0,"x_max":0,"o":"m 861 561 l 533 561 l 533 894 l 372 894 l 372 561 l 44 561 l 44 408 l 372 408 l 372 76 l 533 76 l 533 408 l 861 408 z "},"−":{"ha":918,"x_min":0,"x_max":0,"o":"m 44 285 l 874 285 l 874 438 l 44 438 z "},"×":{"ha":858,"x_min":0,"x_max":0,"o":"m 31 0 l 235 0 l 429 243 l 624 0 l 828 0 l 529 364 l 822 722 l 619 722 l 429 486 l 239 722 l 36 722 l 331 364 z "},"÷":{"ha":918,"x_min":0,"x_max":0,"o":"m 458 619 b 551 711 517 619 551 661 b 458 801 551 760 517 801 b 367 711 401 801 367 760 b 458 619 367 661 401 619 z m 44 285 l 874 285 l 874 438 l 44 438 z m 458 -79 b 551 11 517 -79 551 -37 b 458 103 551 61 517 103 b 367 11 401 103 367 61 b 458 -79 367 -37 401 -79 z "},"=":{"ha":918,"x_min":0,"x_max":0,"o":"m 44 478 l 874 478 l 874 631 l 44 631 z m 44 90 l 874 90 l 874 243 l 44 243 z "},"≠":{"ha":918,"x_min":0,"x_max":0,"o":"m 874 478 l 874 631 l 665 631 l 760 846 l 586 846 l 492 631 l 44 631 l 44 478 l 424 478 l 321 243 l 44 243 l 44 90 l 254 90 l 158 -126 l 332 -126 l 428 90 l 874 90 l 874 243 l 494 243 l 597 478 z "},">":{"ha":906,"x_min":0,"x_max":0,"o":"m 44 36 l 861 279 l 861 440 l 44 683 l 44 522 l 614 360 l 44 197 z "},"<":{"ha":906,"x_min":0,"x_max":0,"o":"m 861 36 l 861 197 l 290 360 l 861 522 l 861 683 l 44 440 l 44 279 z "},"≥":{"ha":906,"x_min":0,"x_max":0,"o":"m 44 190 l 861 433 l 861 594 l 44 838 l 44 676 l 614 514 l 44 351 z m 44 -78 l 861 -78 l 861 75 l 44 75 z "},"≤":{"ha":906,"x_min":0,"x_max":0,"o":"m 861 190 l 861 351 l 290 514 l 861 676 l 861 838 l 44 594 l 44 433 z m 861 -78 l 861 75 l 43 75 l 43 -78 z "},"±":{"ha":906,"x_min":0,"x_max":0,"o":"m 533 624 l 533 957 l 372 957 l 372 624 l 44 624 l 44 471 l 372 471 l 372 139 l 533 139 l 533 471 l 863 471 l 863 624 z m 44 -81 l 861 -81 l 861 74 l 44 74 z "},"≈":{"ha":944,"x_min":0,"x_max":0,"o":"m 271 410 b 663 478 440 410 503 478 b 903 429 729 478 821 465 l 903 589 b 674 635 831 621 747 635 b 282 567 504 635 442 567 b 42 615 215 567 124 578 l 42 456 b 271 410 114 422 197 410 z m 271 88 b 663 156 440 88 503 156 b 903 107 729 156 821 143 l 903 267 b 674 313 831 299 747 313 b 282 244 504 313 442 244 b 42 293 215 244 124 256 l 42 132 b 271 88 114 100 197 88 z "},"~":{"ha":944,"x_min":0,"x_max":0,"o":"m 271 249 b 663 317 440 249 503 317 b 903 268 729 317 821 304 l 903 428 b 674 474 831 460 747 474 b 282 406 504 474 442 406 b 42 454 215 406 124 417 l 42 293 b 271 249 114 261 197 249 z "},"¬":{"ha":918,"x_min":0,"x_max":0,"o":"m 874 585 l 44 585 l 44 432 l 701 432 l 701 122 l 874 122 z "},"^":{"ha":876,"x_min":0,"x_max":0,"o":"m 172 393 l 438 782 l 704 393 l 842 496 l 508 972 l 368 972 l 35 496 z "},"∅":{"ha":993,"x_min":0,"x_max":0,"o":"m 942 757 l 878 822 l 735 675 b 494 743 672 718 592 743 b 99 361 244 743 99 574 b 188 107 99 263 131 174 l 51 -35 l 115 -99 l 256 47 b 494 -21 318 4 399 -21 b 890 361 744 -21 890 149 b 803 614 890 458 860 546 z m 269 361 b 494 589 269 493 351 589 b 621 556 544 589 588 578 l 306 228 b 269 361 282 265 269 311 z m 719 361 b 494 133 719 229 638 133 b 369 165 446 133 404 144 l 686 492 b 719 361 708 456 719 411 z "},"∞":{"ha":1764,"x_min":0,"x_max":0,"o":"m 447 -21 b 1306 585 903 -21 953 585 b 1538 361 1450 585 1538 486 b 1313 138 1538 236 1451 138 b 1110 304 1204 138 1129 197 l 951 304 b 1313 -21 963 118 1094 -21 b 1713 363 1558 -21 1713 154 b 1317 743 1713 568 1564 743 b 458 138 861 743 811 138 b 226 361 314 138 226 236 b 451 585 226 486 313 585 b 654 418 558 585 635 525 l 813 418 b 451 743 801 604 669 743 b 51 360 206 743 51 568 b 447 -21 51 154 200 -21 z "},"∫":{"ha":633,"x_min":0,"x_max":0,"o":"m 47 -278 l 149 -278 b 404 -26 338 -278 404 -179 l 404 769 b 511 878 404 844 435 878 l 588 878 l 588 1021 l 485 1021 b 231 769 296 1021 231 922 l 231 -26 b 122 -135 231 -101 200 -135 l 47 -135 z "},"∏":{"ha":1090,"x_min":0,"x_max":0,"o":"m 93 972 l 93 0 l 272 0 l 272 810 l 817 810 l 817 0 l 997 0 l 997 972 z "},"∑":{"ha":1033,"x_min":0,"x_max":0,"o":"m 93 0 l 940 0 l 940 163 l 326 163 l 326 174 l 640 481 l 640 492 l 326 799 l 326 810 l 940 810 l 940 972 l 93 972 l 93 803 l 410 492 l 410 481 l 93 169 z "},"√":{"ha":879,"x_min":0,"x_max":0,"o":"m 661 972 l 318 200 l 217 429 l 31 429 l 224 0 l 413 0 l 849 972 z "},"∂":{"ha":831,"x_min":0,"x_max":0,"o":"m 683 565 l 368 972 l 164 972 l 426 635 b 388 636 413 636 400 636 b 51 314 165 636 51 485 b 415 -21 51 132 182 -21 b 779 314 649 -21 779 131 b 683 565 779 400 753 475 z m 415 143 b 231 314 294 143 231 218 b 415 488 231 411 294 488 b 600 314 536 488 600 411 b 415 143 600 218 536 143 z "},"%":{"ha":906,"x_min":0,"x_max":0,"o":"m 174 767 b 290 879 247 767 290 818 b 174 993 290 942 247 993 b 58 879 101 993 58 942 b 174 767 58 818 101 767 z m 58 0 l 243 0 l 847 972 l 663 972 z m 731 -19 b 847 94 804 -19 847 32 b 731 208 847 156 804 208 b 615 94 658 208 615 156 b 731 -19 615 32 658 -19 z "},"‰":{"ha":1210,"x_min":0,"x_max":0,"o":"m 174 767 b 290 879 247 767 290 818 b 174 993 290 942 247 993 b 58 879 101 993 58 942 b 174 767 58 818 101 767 z m 58 0 l 243 0 l 847 972 l 663 972 z m 731 -19 b 847 94 804 -19 847 32 b 731 208 847 156 804 208 b 615 94 658 208 615 156 b 731 -19 615 32 658 -19 z m 1035 -19 b 1151 94 1107 -19 1151 32 b 1035 208 1151 156 1107 208 b 919 94 963 208 919 156 b 1035 -19 919 32 963 -19 z "},"◊":{"ha":911,"x_min":0,"x_max":0,"o":"m 456 -33 l 860 364 l 456 761 l 51 364 z m 456 164 l 250 364 l 456 564 l 661 364 z "},"@":{"ha":914,"x_min":0,"x_max":0,"o":"m 457 -21 b 790 147 615 -21 731 50 b 725 118 772 126 754 118 b 632 206 678 118 632 142 l 632 235 b 438 113 594 146 524 113 b 190 361 285 113 190 221 b 431 610 190 501 285 610 b 624 503 521 610 585 571 l 617 531 l 629 594 l 701 594 l 701 261 b 763 192 701 211 729 192 b 856 358 835 192 856 282 b 457 743 856 568 706 743 b 58 361 208 743 58 568 b 457 -21 58 154 208 -21 z m 446 193 b 611 361 553 193 611 265 b 444 529 611 457 553 529 b 281 361 336 529 281 457 b 446 193 281 265 338 193 z "},"&":{"ha":1056,"x_min":0,"x_max":0,"o":"m 997 356 b 972 468 997 397 992 443 l 811 468 b 832 371 828 443 832 400 b 796 246 832 324 819 281 l 407 822 l 728 822 l 728 972 l 132 972 l 299 724 b 58 376 146 664 58 538 b 501 -21 58 151 229 -21 b 749 53 599 -21 681 1 l 756 42 l 799 -21 l 975 -21 l 890 106 b 997 356 960 172 997 260 z m 233 378 b 385 596 233 485 288 560 l 681 156 b 531 129 638 139 588 129 b 233 378 340 129 233 229 z "},"¶":{"ha":1140,"x_min":0,"x_max":0,"o":"m 551 0 l 1094 0 l 1094 163 l 957 163 l 957 810 l 1094 810 l 1094 972 l 551 972 b 58 486 242 972 58 778 b 551 0 58 194 251 0 z m 628 163 l 628 810 l 778 810 l 778 163 z "},"§":{"ha":867,"x_min":0,"x_max":0,"o":"m 428 -49 b 772 178 660 -49 772 40 b 700 313 772 233 754 279 b 808 481 771 344 808 396 b 540 692 808 603 733 678 l 375 703 b 260 790 296 708 260 735 b 433 882 260 850 311 882 b 613 785 551 882 596 851 l 767 785 b 439 1021 760 978 603 1021 b 94 794 207 1021 94 938 b 167 660 94 739 113 693 b 58 490 96 629 58 574 b 326 281 58 372 133 294 l 492 269 b 607 182 571 264 607 238 b 435 90 607 122 556 90 b 254 188 315 90 271 122 l 100 188 b 428 -49 107 -6 264 -49 z m 507 389 l 347 401 b 225 493 263 407 225 438 b 360 583 225 554 274 590 l 519 571 b 642 479 604 565 642 536 b 507 389 642 418 594 383 z "},"©":{"ha":883,"x_min":0,"x_max":0,"o":"m 442 257 b 825 625 676 257 825 421 b 442 993 825 829 676 993 b 58 625 207 993 58 829 b 442 257 58 421 207 257 z m 446 363 b 169 625 271 363 169 482 b 446 888 169 768 271 888 b 704 690 589 888 686 807 l 581 690 b 446 779 564 747 518 779 b 292 625 347 779 292 713 b 446 471 292 538 347 471 b 581 560 518 471 564 503 l 704 560 b 446 363 686 444 589 363 z "},"®":{"ha":883,"x_min":0,"x_max":0,"o":"m 442 257 b 825 625 676 257 825 421 b 442 993 825 829 676 993 b 58 625 207 993 58 829 b 442 257 58 421 207 257 z m 224 383 l 224 864 l 493 864 b 686 690 631 864 686 786 b 603 539 686 628 663 572 l 690 383 l 572 383 l 499 517 l 340 517 l 340 383 z m 340 613 l 482 613 b 571 689 547 613 571 639 b 482 767 571 739 547 767 l 340 767 z "},"™":{"ha":1321,"x_min":0,"x_max":0,"o":"m 261 972 l 144 972 l 144 882 l 47 882 l 47 778 l 144 778 l 144 594 b 307 438 144 497 193 438 l 381 438 l 381 543 l 335 543 b 261 606 283 543 261 558 l 261 778 l 381 778 l 381 882 l 261 882 z m 1056 894 b 885 793 961 894 911 851 b 729 894 861 858 811 894 b 563 783 632 894 588 844 l 575 826 l 575 882 l 458 882 l 458 442 l 575 442 l 575 669 b 689 786 575 735 615 786 b 789 678 757 786 789 743 l 789 442 l 906 442 l 906 669 b 1019 786 906 735 946 786 b 1119 678 1089 786 1119 743 l 1119 442 l 1235 442 l 1235 694 b 1056 894 1235 822 1178 894 z "},"°":{"ha":678,"x_min":0,"x_max":0,"o":"m 339 439 b 626 717 519 439 626 565 b 339 993 626 867 519 993 b 51 717 158 993 51 867 b 339 439 51 565 158 439 z m 339 574 b 193 717 247 574 193 636 b 339 860 193 797 247 860 b 485 717 431 860 485 797 b 339 574 485 636 431 574 z "},"|":{"ha":365,"x_min":0,"x_max":0,"o":"m 93 -139 l 272 -139 l 272 1111 l 93 1111 z "},"¦":{"ha":365,"x_min":0,"x_max":0,"o":"m 93 529 l 272 529 l 272 1111 l 93 1111 z m 93 -139 l 272 -139 l 272 443 l 93 443 z "},"†":{"ha":619,"x_min":0,"x_max":0,"o":"m 565 788 l 389 788 l 389 972 l 224 972 l 224 788 l 47 788 l 47 635 l 224 635 l 224 450 l 389 450 l 389 635 l 565 635 z "},"‡":{"ha":619,"x_min":0,"x_max":0,"o":"m 389 338 l 389 635 l 565 635 l 565 788 l 389 788 l 389 972 l 224 972 l 224 788 l 47 788 l 47 635 l 224 635 l 224 338 l 47 338 l 47 185 l 224 185 l 224 0 l 389 0 l 389 185 l 565 185 l 565 338 z "},"№":{"ha":1799,"x_min":0,"x_max":0,"o":"m 1401 343 b 1740 667 1615 343 1740 485 b 1401 993 1740 851 1615 993 b 1063 667 1186 993 1063 851 b 1401 343 1063 485 1188 343 z m 93 0 l 272 0 l 272 639 l 271 779 l 283 779 l 678 0 l 946 0 l 946 972 l 768 972 l 768 333 l 769 193 l 756 193 l 361 972 l 93 972 z m 1401 479 b 1214 667 1285 479 1214 557 b 1401 856 1214 779 1285 856 b 1589 667 1518 856 1589 779 b 1401 479 1589 557 1518 479 z m 1140 0 l 1663 0 l 1663 146 l 1140 146 z "},"̨":{"ha":0,"x_min":0,"x_max":0,"o":"m -140 -247 b -54 -233 -110 -247 -79 -243 l -54 -117 l -72 -118 b -181 -40 -133 -122 -181 -97 b -14 100 -181 14 -140 71 l -131 115 b -324 -94 -221 85 -324 24 b -140 -247 -324 -182 -267 -247 z "},"´":{"ha":308,"x_min":0,"x_max":0,"o":"m 14 815 l 179 815 l 294 1044 l 129 1044 z "},"˘":{"ha":558,"x_min":0,"x_max":0,"o":"m 279 783 b 543 1044 471 783 554 885 l 392 1044 b 279 910 401 956 360 910 b 167 1044 199 910 157 956 l 15 1044 b 279 783 4 885 88 783 z "},"ˇ":{"ha":507,"x_min":0,"x_max":0,"o":"m 331 1044 l 253 890 l 175 1044 l 14 1044 l 129 815 l 378 815 l 493 1044 z "},"¸":{"ha":310,"x_min":0,"x_max":0,"o":"m 163 -61 l 147 -61 l 194 19 l 103 19 l 14 -143 l 140 -143 b 196 -196 176 -143 196 -167 b 139 -249 196 -225 176 -249 b 92 -231 117 -249 103 -240 l 42 -297 b 150 -337 64 -321 103 -337 b 296 -196 238 -337 296 -282 b 163 -61 296 -115 240 -61 z "},"ˆ":{"ha":507,"x_min":0,"x_max":0,"o":"m 493 815 l 378 1044 l 129 1044 l 14 815 l 175 815 l 253 969 l 331 815 z "},"¨":{"ha":607,"x_min":0,"x_max":0,"o":"m 110 860 b 206 949 171 860 206 901 b 110 1038 206 996 171 1038 b 14 949 49 1038 14 996 b 110 860 14 901 49 860 z m 497 860 b 593 949 558 860 593 901 b 497 1038 593 996 558 1038 b 401 949 436 1038 401 996 b 497 860 401 901 436 860 z "},"˙":{"ha":219,"x_min":0,"x_max":0,"o":"m 110 860 b 206 949 171 860 206 901 b 110 1038 206 996 171 1038 b 14 949 49 1038 14 996 b 110 860 14 901 49 860 z "},"`":{"ha":308,"x_min":0,"x_max":0,"o":"m 294 815 l 179 1044 l 14 1044 l 129 815 z "},"˝":{"ha":538,"x_min":0,"x_max":0,"o":"m 14 815 l 179 815 l 294 1044 l 129 1044 z m 243 815 l 408 815 l 524 1044 l 358 1044 z "},"¯":{"ha":538,"x_min":0,"x_max":0,"o":"m 14 892 l 524 892 l 524 1044 l 14 1044 z "},"˚":{"ha":300,"x_min":0,"x_max":0,"o":"m 150 801 b 286 933 236 801 286 863 b 150 1067 286 1006 236 1067 b 14 933 64 1067 14 1006 b 150 801 14 863 64 801 z m 150 883 b 99 933 117 883 99 906 b 150 985 99 963 117 985 b 201 933 183 985 201 963 b 150 883 201 906 183 883 z "},"˜":{"ha":589,"x_min":0,"x_max":0,"o":"m 158 853 b 426 915 272 853 319 915 b 575 871 467 915 525 906 l 575 1006 b 431 1049 532 1036 481 1049 b 163 986 317 1049 269 986 b 14 1031 121 986 64 996 l 14 896 b 158 853 57 865 108 853 z "}}}
